<svg width="83" height="75" viewBox="0 0 83 75" fill="none" xmlns="http://www.w3.org/2000/svg">
<path d="M41.25 37.5C39.025 37.5 36.8499 38.1598 34.9998 39.396C33.1498 40.6321 31.7078 42.3891 30.8564 44.4448C30.0049 46.5005 29.7821 48.7625 30.2162 50.9448C30.6502 53.1271 31.7217 55.1316 33.295 56.705C34.8684 58.2783 36.8729 59.3498 39.0552 59.7838C41.2375 60.2179 43.4995 59.9951 45.5552 59.1436C47.6109 58.2922 49.3679 56.8502 50.604 55.0002C51.8402 53.1501 52.5 50.975 52.5 48.75C52.5 45.7663 51.3147 42.9048 49.205 40.795C47.0952 38.6853 44.2337 37.5 41.25 37.5ZM41.25 52.5C40.5083 52.5 39.7833 52.2801 39.1666 51.868C38.5499 51.456 38.0693 50.8703 37.7854 50.1851C37.5016 49.4998 37.4274 48.7458 37.5721 48.0184C37.7168 47.291 38.0739 46.6228 38.5984 46.0984C39.1228 45.5739 39.791 45.2168 40.5184 45.0721C41.2458 44.9274 41.9998 45.0016 42.6851 45.2854C43.3703 45.5693 43.956 46.0499 44.368 46.6666C44.7801 47.2833 45 48.0083 45 48.75C45 49.7446 44.6049 50.6984 43.9016 51.4016C43.1984 52.1049 42.2446 52.5 41.25 52.5ZM38.5875 28.9125C38.9441 29.2539 39.3647 29.5215 39.825 29.7C40.2739 29.8984 40.7592 30.0009 41.25 30.0009C41.7408 30.0009 42.2261 29.8984 42.675 29.7C43.1353 29.5215 43.5559 29.2539 43.9125 28.9125L52.5 20.475C53.226 19.749 53.6339 18.7643 53.6339 17.7375C53.6339 16.7107 53.226 15.726 52.5 15C51.774 14.274 50.7893 13.8661 49.7625 13.8661C48.7357 13.8661 47.751 14.274 47.025 15L45 17.2125V3.75C45 2.75544 44.6049 1.80161 43.9016 1.09835C43.1984 0.395088 42.2446 0 41.25 0C40.2554 0 39.3016 0.395088 38.5984 1.09835C37.8951 1.80161 37.5 2.75544 37.5 3.75V17.2125L35.475 15C34.749 14.274 33.7643 13.8661 32.7375 13.8661C31.7107 13.8661 30.726 14.274 30 15C29.274 15.726 28.8661 16.7107 28.8661 17.7375C28.8661 18.7643 29.274 19.749 30 20.475L38.5875 28.9125ZM67.5 48.75C67.5 48.0083 67.2801 47.2833 66.868 46.6666C66.456 46.0499 65.8703 45.5693 65.1851 45.2854C64.4998 45.0016 63.7458 44.9274 63.0184 45.0721C62.291 45.2168 61.6228 45.5739 61.0983 46.0984C60.5739 46.6228 60.2168 47.291 60.0721 48.0184C59.9274 48.7458 60.0016 49.4998 60.2854 50.1851C60.5693 50.8703 61.0499 51.456 61.6666 51.868C62.2833 52.2801 63.0083 52.5 63.75 52.5C64.7446 52.5 65.6984 52.1049 66.4017 51.4016C67.1049 50.6984 67.5 49.7446 67.5 48.75ZM71.25 22.5H60C59.0054 22.5 58.0516 22.8951 57.3483 23.5984C56.6451 24.3016 56.25 25.2554 56.25 26.25C56.25 27.2446 56.6451 28.1984 57.3483 28.9016C58.0516 29.6049 59.0054 30 60 30H71.25C72.2446 30 73.1984 30.3951 73.9017 31.0984C74.6049 31.8016 75 32.7554 75 33.75V63.75C75 64.7446 74.6049 65.6984 73.9017 66.4017C73.1984 67.1049 72.2446 67.5 71.25 67.5H11.25C10.2554 67.5 9.30161 67.1049 8.59835 66.4017C7.89509 65.6984 7.5 64.7446 7.5 63.75V33.75C7.5 32.7554 7.89509 31.8016 8.59835 31.0984C9.30161 30.3951 10.2554 30 11.25 30H22.5C23.4946 30 24.4484 29.6049 25.1516 28.9016C25.8549 28.1984 26.25 27.2446 26.25 26.25C26.25 25.2554 25.8549 24.3016 25.1516 23.5984C24.4484 22.8951 23.4946 22.5 22.5 22.5H11.25C8.26631 22.5 5.40483 23.6853 3.29505 25.795C1.18526 27.9048 0 30.7663 0 33.75V63.75C0 66.7337 1.18526 69.5952 3.29505 71.705C5.40483 73.8147 8.26631 75 11.25 75H71.25C74.2337 75 77.0952 73.8147 79.205 71.705C81.3147 69.5952 82.5 66.7337 82.5 63.75V33.75C82.5 30.7663 81.3147 27.9048 79.205 25.795C77.0952 23.6853 74.2337 22.5 71.25 22.5ZM15 48.75C15 49.4917 15.2199 50.2167 15.632 50.8334C16.044 51.4501 16.6297 51.9307 17.3149 52.2146C18.0002 52.4984 18.7542 52.5726 19.4816 52.4279C20.209 52.2832 20.8772 51.9261 21.4016 51.4016C21.9261 50.8772 22.2833 50.209 22.4279 49.4816C22.5726 48.7542 22.4984 48.0002 22.2145 47.3149C21.9307 46.6297 21.4501 46.044 20.8334 45.632C20.2167 45.2199 19.4917 45 18.75 45C17.7554 45 16.8016 45.3951 16.0984 46.0984C15.3951 46.8016 15 47.7554 15 48.75Z" fill="white"/>
</svg>
