<svg width="20" height="22" viewBox="0 0 20 22" fill="none" xmlns="http://www.w3.org/2000/svg">
<path d="M13.8531 2.17414C12.5737 2.00213 10.8853 2 8.5 2H6.5C5.94772 2 5.5 1.55229 5.5 1C5.5 0.447717 5.94772 4.55834e-07 6.5 4.55834e-07H8.57481C10.8684 -2.11176e-05 12.6914 -3.82513e-05 14.1196 0.191977C15.5921 0.389944 16.7936 0.808359 17.7426 1.75736C18.6916 2.70636 19.1101 3.90794 19.308 5.3804C19.5 6.80858 19.5 8.63165 19.5 10.9252V17C19.5 17.5523 19.0523 18 18.5 18C17.9477 18 17.5 17.5523 17.5 17V11C17.5 8.61471 17.4979 6.92634 17.3259 5.64689C17.1577 4.39621 16.8439 3.68704 16.3284 3.17157C15.813 2.65611 15.1038 2.34229 13.8531 2.17414Z" fill="white"/>
<path d="M8.1925 3H8.3075C10.0265 2.99998 11.3949 2.99997 12.4674 3.14815C13.5756 3.30126 14.4783 3.62517 15.1892 4.3557C15.8972 5.08336 16.2087 6.00268 16.3564 7.13161C16.5 8.22969 16.5 9.6325 16.5 11.4026V16.7959C16.5 17.8948 16.5 18.8025 16.4018 19.4835C16.3017 20.1771 16.0696 20.8706 15.3967 21.254C14.7841 21.6029 14.1103 21.5293 13.5525 21.3487C12.9897 21.1664 12.4217 20.8373 11.9064 20.49C11.3853 20.1387 10.8747 19.7386 10.432 19.3896L10.3817 19.3499C9.9462 19.0065 9.5993 18.733 9.3353 18.5635C8.9596 18.3221 8.7261 18.1733 8.538 18.0788C8.3656 17.9921 8.2928 17.984 8.25 17.984C8.2072 17.984 8.1344 17.9921 7.962 18.0788C7.7739 18.1733 7.54045 18.3221 7.1647 18.5635C6.90107 18.7328 6.5546 19.0059 6.11988 19.3487L6.06797 19.3896C5.62533 19.7386 5.11474 20.1387 4.59361 20.49C4.0783 20.8373 3.51034 21.1664 2.94752 21.3487C2.38975 21.5293 1.71591 21.6029 1.10335 21.254C0.430362 20.8706 0.198262 20.1771 0.098252 19.4835C-5.18784e-05 18.8018 -2.7966e-05 17.893 9.8935e-07 16.7927V11.4026C-7.96295e-06 9.63255 -1.50651e-05 8.22968 0.143632 7.13161C0.291332 6.00268 0.602762 5.08336 1.31084 4.3557C2.02169 3.62517 2.92444 3.30126 4.03258 3.14815C5.10508 2.99997 6.47355 2.99998 8.1925 3Z" fill="white"/>
</svg>
