<svg width="28" height="29" viewBox="0 0 28 29" fill="none" xmlns="http://www.w3.org/2000/svg">
<path fill-rule="evenodd" clip-rule="evenodd" d="M13.5985 0C7.53924 0 2.62163 4.89659 2.62159 10.9438C2.62146 12.3504 2.52711 13.412 1.88027 14.3662C1.79033 14.4969 1.67099 14.6607 1.54059 14.8396C1.31411 15.1505 1.05426 15.507 0.857158 15.8159C0.509291 16.3609 0.169429 17.0183 0.0525933 17.7842C-0.32859 20.283 1.4286 21.9008 3.17858 22.6258C4.48139 23.1655 5.8891 23.5911 7.35738 23.9026C8.11891 26.5829 10.6388 28.5203 13.5972 28.5203C16.5554 28.5203 19.0751 26.5831 19.8368 23.9032C21.3061 23.5916 22.7147 23.1658 24.0183 22.6258C25.7683 21.9008 27.5255 20.283 27.1443 17.7842C27.0275 17.0183 26.6876 16.3609 26.3398 15.8159C26.1427 15.507 25.8828 15.1505 25.6563 14.8397C25.526 14.6608 25.4067 14.497 25.3167 14.3663C24.6698 13.4121 24.5755 12.3505 24.5753 10.9439C24.5753 4.89664 19.6577 0 13.5985 0ZM4.61138 10.9439C4.61138 6.00178 8.63193 1.9898 13.5985 1.9898C18.565 1.9898 22.5855 6.00186 22.5855 10.944C22.5857 12.3798 22.6565 13.9905 23.672 15.4862L23.6752 15.4908C23.8421 15.7338 23.9887 15.9329 24.1268 16.1206C24.3109 16.3706 24.48 16.6004 24.6625 16.8864C24.9453 17.3296 25.1208 17.7137 25.1773 18.0842C25.3603 19.2839 24.5951 20.233 23.2568 20.7875C17.5806 23.1389 9.6163 23.1389 3.94011 20.7875C2.60179 20.233 1.83663 19.2839 2.01963 18.0842C2.07616 17.7137 2.2516 17.3296 2.53447 16.8864C2.71694 16.6004 2.88603 16.3707 3.07004 16.1207C3.20799 15.9332 3.35507 15.7334 3.52175 15.4909L3.52493 15.4862C4.54044 13.9905 4.61126 12.3798 4.61138 10.9439ZM17.5289 24.2932C14.9441 24.6235 12.25 24.6233 9.6653 24.2929C10.4234 25.6177 11.8906 26.5305 13.5972 26.5305C15.3036 26.5305 16.7707 25.6179 17.5289 24.2932Z" fill="#1B8354"/>
</svg>
