<svg width="20" height="22" viewBox="0 0 20 22" fill="none" xmlns="http://www.w3.org/2000/svg">
<path d="M12 5.00391C12 4.45162 12.4477 4.00391 13 4.00391L15 4.00391C15.5523 4.00391 16 4.45162 16 5.00391C16 5.55619 15.5523 6.00391 15 6.00391L13 6.00391C12.4477 6.00391 12 5.55619 12 5.00391Z" fill="white"/>
<path fill-rule="evenodd" clip-rule="evenodd" d="M9.99928 0.00505294C10.263 0.00505294 10.5274 0.00379369 10.7923 0.00253246C12.2192 -0.00426316 13.6582 -0.0111165 15.0702 0.178635C16.4065 0.358206 17.5126 0.739816 18.3884 1.61515C19.1913 2.41769 19.5799 3.41487 19.7773 4.60825C19.9326 5.54728 19.9787 6.67192 19.9928 8.00391H19.997L19.9993 9.00128C20 9.3221 20 9.65624 20 10.0032V12.0765C20 14.1342 20 15.78 19.8263 17.0716C19.6467 18.4074 19.2649 19.5131 18.3891 20.3885C17.5133 21.264 16.4073 21.6456 15.071 21.8252C13.6589 22.015 12.2199 22.0082 10.793 22.0014L10.7917 22.0014C10.5273 22.0001 10.2633 21.9989 10 21.9989C9.73669 21.9989 9.47272 22.0001 9.20832 22.0014L9.20707 22.0014C7.78018 22.0082 6.34109 22.015 4.92903 21.8252C3.59273 21.6456 2.48669 21.264 1.61092 20.3885C0.735138 19.5131 0.353334 18.4074 0.173673 17.0716C-3.9354e-05 15.78 -2.16456e-05 14.1342 4.98319e-07 12.0765V10.0032C4.98319e-07 9.82683 4.98323e-07 9.65361 9.6432e-05 9.48377C4.98323e-07 9.45759 4.98319e-07 9.43 4.98319e-07 9.40091V8.99824C0.000389545 8.82636 0.000972536 8.65754 0.00188274 8.49174L0.0029869 8.00391H0.00572249C0.0198662 6.67192 0.065992 5.54728 0.221276 4.60825C0.418622 3.41487 0.807242 2.41769 1.61019 1.61515C2.48597 0.739816 3.592 0.358206 4.9283 0.178635C6.34037 -0.0111165 7.7794 -0.00426317 9.2063 0.00253245C9.47112 0.00379369 9.73553 0.00505294 9.99928 0.00505294ZM5.1948 2.1598C4.08028 2.30957 3.46664 2.58663 3.0244 3.02865C2.61722 3.43562 2.35125 3.98637 2.1945 4.93423C2.08562 5.59267 2.03701 6.391 2.01564 7.39456C2.00958 7.67874 2.00656 7.82083 2.0948 7.91092C2.18304 8.00101 2.32627 8.00101 2.61275 8.00101H17.3858C17.6723 8.00101 17.8155 8.00101 17.9038 7.91092C17.992 7.82083 17.989 7.67874 17.9829 7.39456C17.9615 6.391 17.9129 5.59267 17.804 4.93423C17.6473 3.98637 17.3813 3.43562 16.9741 3.02865C16.5319 2.58663 15.9183 2.30957 14.8038 2.1598C13.6605 2.00617 12.1489 2.00404 9.99928 2.00404C7.84968 2.00404 6.33809 2.00617 5.1948 2.1598ZM5 12.0039C4.44772 12.0039 4 12.4516 4 13.0039C4 13.5562 4.44772 14.0039 5 14.0039H5.52632C6.0786 14.0039 6.52632 13.5562 6.52632 13.0039C6.52632 12.4516 6.0786 12.0039 5.52632 12.0039H5ZM9.73685 12.0039C9.18456 12.0039 8.73685 12.4516 8.73685 13.0039C8.73685 13.5562 9.18456 14.0039 9.73685 14.0039H10.2632C10.8154 14.0039 11.2632 13.5562 11.2632 13.0039C11.2632 12.4516 10.8154 12.0039 10.2632 12.0039H9.73685ZM14.4737 12.0039C13.9214 12.0039 13.4737 12.4516 13.4737 13.0039C13.4737 13.5562 13.9214 14.0039 14.4737 14.0039H15C15.5523 14.0039 16 13.5562 16 13.0039C16 12.4516 15.5523 12.0039 15 12.0039H14.4737ZM4 17.0039C4 16.4516 4.44772 16.0039 5 16.0039H5.52632C6.0786 16.0039 6.52632 16.4516 6.52632 17.0039C6.52632 17.5562 6.0786 18.0039 5.52632 18.0039H5C4.44772 18.0039 4 17.5562 4 17.0039ZM8.73685 17.0039C8.73685 16.4516 9.18456 16.0039 9.73685 16.0039H10.2632C10.8154 16.0039 11.2632 16.4516 11.2632 17.0039C11.2632 17.5562 10.8154 18.0039 10.2632 18.0039H9.73685C9.18456 18.0039 8.73685 17.5562 8.73685 17.0039ZM13.4737 17.0039C13.4737 16.4516 13.9214 16.0039 14.4737 16.0039H15C15.5523 16.0039 16 16.4516 16 17.0039C16 17.5562 15.5523 18.0039 15 18.0039H14.4737C13.9214 18.0039 13.4737 17.5562 13.4737 17.0039Z" fill="white"/>
</svg>
