<svg width="12" height="13" viewBox="0 0 12 13" fill="none" xmlns="http://www.w3.org/2000/svg">
<path d="M4.83019 6.25314C4.65934 6.08229 4.38233 6.08229 4.21147 6.25314C4.04062 6.424 4.04062 6.70101 4.21147 6.87186L5.36045 8.02083L4.21147 9.16981C4.04062 9.34066 4.04062 9.61767 4.21147 9.78853C4.38233 9.95938 4.65934 9.95938 4.83019 9.78853L5.97917 8.63955L7.12814 9.78853C7.299 9.95938 7.576 9.95938 7.74686 9.78853C7.91771 9.61767 7.91771 9.34066 7.74686 9.16981L6.59789 8.02083L7.74686 6.87186C7.91771 6.70101 7.91771 6.424 7.74686 6.25314C7.576 6.08229 7.299 6.08229 7.12814 6.25314L5.97917 7.40212L4.83019 6.25314Z" fill="white"/>
<path fill-rule="evenodd" clip-rule="evenodd" d="M2.91667 0.4375C2.91667 0.195875 2.72079 0 2.47917 0C2.23754 0 2.04167 0.195875 2.04167 0.4375V0.807794C1.57222 0.940847 1.17629 1.1571 0.846734 1.51338C0.392953 2.00395 0.191245 2.62379 0.0946451 3.40055C-1.13348e-05 4.16168 -6.25646e-06 5.1371 1.04017e-07 6.38169V6.74331C-6.25646e-06 7.9879 -1.13348e-05 8.96332 0.0946451 9.72445C0.191245 10.5012 0.392953 11.121 0.846734 11.6116C1.305 12.107 1.89161 12.3317 2.62575 12.4384C3.33627 12.5417 4.24407 12.5417 5.38956 12.5417H6.56878C7.71426 12.5417 8.62206 12.5417 9.33258 12.4384C10.0667 12.3317 10.6533 12.107 11.1116 11.6116C11.5654 11.121 11.7671 10.5012 11.8637 9.72445C11.9583 8.96332 11.9583 7.98789 11.9583 6.74329V6.38171C11.9583 5.13712 11.9583 4.16168 11.8637 3.40055C11.7671 2.62379 11.5654 2.00395 11.1116 1.51338C10.782 1.1571 10.3861 0.940847 9.91667 0.807794V0.4375C9.91667 0.195875 9.72079 0 9.47917 0C9.23754 0 9.04167 0.195875 9.04167 0.4375V0.650939C8.37896 0.583316 7.56349 0.583324 6.56877 0.583334H5.38956C4.39485 0.583324 3.57937 0.583316 2.91667 0.650939V0.4375ZM1.48907 2.10754C1.64035 1.94399 1.82075 1.81878 2.05835 1.72424C2.11054 1.90749 2.27918 2.04167 2.47917 2.04167C2.72079 2.04167 2.91667 1.84579 2.91667 1.60417V1.53101C3.53559 1.45924 4.33555 1.45833 5.425 1.45833H6.53333C7.62278 1.45833 8.42275 1.45924 9.04167 1.53101V1.60417C9.04167 1.84579 9.23754 2.04167 9.47917 2.04167C9.67915 2.04167 9.8478 1.90749 9.89998 1.72424C10.1376 1.81878 10.318 1.94399 10.4693 2.10754C10.7447 2.40536 10.908 2.81363 10.9943 3.5H0.964023C1.05031 2.81363 1.21359 2.40536 1.48907 2.10754ZM0.897705 4.375H11.0606C11.083 4.93319 11.0833 5.60047 11.0833 6.41273V6.71228C11.0833 7.99462 11.0825 8.91563 10.9954 9.61647C10.9094 10.308 10.7459 10.7184 10.4693 11.0175C10.1971 11.3117 9.83075 11.4818 9.20673 11.5725C8.56639 11.6656 7.72224 11.6667 6.53333 11.6667H5.425C4.23609 11.6667 3.39194 11.6656 2.75161 11.5725C2.12758 11.4818 1.76121 11.3117 1.48907 11.0175C1.21245 10.7184 1.04896 10.308 0.962956 9.61647C0.875797 8.91563 0.875 7.99462 0.875 6.71228V6.41273C0.875 5.60047 0.87532 4.93319 0.897705 4.375Z" fill="white"/>
</svg>
