<svg width="12" height="13" viewBox="0 0 12 13" fill="none" xmlns="http://www.w3.org/2000/svg">
<path d="M3.64583 6.27083C3.32367 6.27083 3.0625 6.532 3.0625 6.85417C3.0625 7.17633 3.32367 7.4375 3.64583 7.4375H3.65107C3.97323 7.4375 4.2344 7.17633 4.2344 6.85417C4.2344 6.532 3.97323 6.27083 3.65107 6.27083H3.64583Z" fill="white"/>
<path d="M5.97655 6.27083C5.65438 6.27083 5.39322 6.532 5.39322 6.85417C5.39322 7.17633 5.65438 7.4375 5.97655 7.4375H5.98178C6.30395 7.4375 6.56512 7.17633 6.56512 6.85417C6.56512 6.532 6.30395 6.27083 5.98178 6.27083H5.97655Z" fill="white"/>
<path d="M8.30727 6.27083C7.9851 6.27083 7.72393 6.532 7.72393 6.85417C7.72393 7.17633 7.9851 7.4375 8.30727 7.4375H8.3125C8.63467 7.4375 8.89583 7.17633 8.89583 6.85417C8.89583 6.532 8.63467 6.27083 8.3125 6.27083H8.30727Z" fill="white"/>
<path d="M3.64583 8.60417C3.32367 8.60417 3.0625 8.86533 3.0625 9.1875C3.0625 9.50967 3.32367 9.77083 3.64583 9.77083H3.65107C3.97323 9.77083 4.2344 9.50967 4.2344 9.1875C4.2344 8.86533 3.97323 8.60417 3.65107 8.60417H3.64583Z" fill="white"/>
<path d="M5.97655 8.60417C5.65438 8.60417 5.39322 8.86533 5.39322 9.1875C5.39322 9.50967 5.65438 9.77083 5.97655 9.77083H5.98178C6.30395 9.77083 6.56512 9.50967 6.56512 9.1875C6.56512 8.86533 6.30395 8.60417 5.98178 8.60417H5.97655Z" fill="white"/>
<path fill-rule="evenodd" clip-rule="evenodd" d="M2.91667 0.4375C2.91667 0.195875 2.72079 0 2.47917 0C2.23754 0 2.04167 0.195875 2.04167 0.4375V0.807794C1.57222 0.940847 1.17629 1.1571 0.846734 1.51338C0.392953 2.00395 0.191245 2.62379 0.0946451 3.40055C-1.13348e-05 4.16168 -6.25646e-06 5.1371 1.04017e-07 6.38169V6.74331C-6.25646e-06 7.9879 -1.13348e-05 8.96332 0.0946451 9.72445C0.191245 10.5012 0.392953 11.121 0.846734 11.6116C1.305 12.107 1.89161 12.3317 2.62575 12.4384C3.33627 12.5417 4.24407 12.5417 5.38956 12.5417H6.56878C7.71426 12.5417 8.62206 12.5417 9.33258 12.4384C10.0667 12.3317 10.6533 12.107 11.1116 11.6116C11.5654 11.121 11.7671 10.5012 11.8637 9.72445C11.9583 8.96332 11.9583 7.98789 11.9583 6.74329V6.38171C11.9583 5.13712 11.9583 4.16168 11.8637 3.40055C11.7671 2.62379 11.5654 2.00395 11.1116 1.51338C10.782 1.1571 10.3861 0.940847 9.91667 0.807794V0.4375C9.91667 0.195875 9.72079 0 9.47917 0C9.23754 0 9.04167 0.195875 9.04167 0.4375V0.650939C8.37896 0.583316 7.56349 0.583324 6.56877 0.583334H5.38956C4.39485 0.583324 3.57937 0.583316 2.91667 0.650939V0.4375ZM2.05835 1.72424C2.11054 1.90749 2.27918 2.04167 2.47917 2.04167C2.72079 2.04167 2.91667 1.84579 2.91667 1.60417V1.53101C3.53559 1.45924 4.33555 1.45833 5.425 1.45833H6.53333C7.62278 1.45833 8.42275 1.45924 9.04167 1.53101V1.60417C9.04167 1.84579 9.23754 2.04167 9.47917 2.04167C9.67915 2.04167 9.8478 1.90749 9.89998 1.72424C10.1376 1.81878 10.318 1.94399 10.4693 2.10754C10.7452 2.40589 10.9086 2.8151 10.9948 3.50372C10.976 3.50126 10.9569 3.5 10.9375 3.5H1.02083C1.00142 3.5 0.982302 3.50126 0.963557 3.50372C1.04972 2.8151 1.21309 2.40589 1.48907 2.10754C1.64035 1.94399 1.82075 1.81878 2.05835 1.72424ZM0.89841 4.35764C0.875327 4.91934 0.875 5.59203 0.875 6.41273V6.71228C0.875 7.99462 0.875797 8.91563 0.962956 9.61647C1.04896 10.308 1.21245 10.7184 1.48907 11.0175C1.76121 11.3117 2.12758 11.4818 2.75161 11.5725C3.39194 11.6656 4.23609 11.6667 5.425 11.6667H6.53333C7.72224 11.6667 8.56639 11.6656 9.20673 11.5725C9.83075 11.4818 10.1971 11.3117 10.4693 11.0175C10.7459 10.7184 10.9094 10.308 10.9954 9.61647C11.0825 8.91563 11.0833 7.99462 11.0833 6.71228V6.41273C11.0833 5.59203 11.083 4.91934 11.0599 4.35764C11.0211 4.36894 10.98 4.375 10.9375 4.375H1.02083C0.978338 4.375 0.937258 4.36894 0.89841 4.35764Z" fill="white"/>
</svg>
