<svg width="29" height="29" viewBox="0 0 29 29" fill="none" xmlns="http://www.w3.org/2000/svg">
<path d="M28.1118 2.59053C28.8059 2.34469 29.1693 1.5827 28.9235 0.888567C28.6777 0.194436 27.9157 -0.168978 27.2215 0.0768605C26.0507 0.49153 24.9315 1.28239 23.9493 2.14375C22.9533 3.01723 22.0221 4.03132 21.2311 4.97958C20.6453 5.6817 20.1274 6.3586 19.7072 6.93294C19.3222 6.47179 18.9386 6.13476 18.5729 5.89096C18.2071 5.64705 17.8726 5.50585 17.5955 5.42667C17.3828 5.35486 17.1099 5.33477 17 5.3337C16.2636 5.3337 15.6667 5.93065 15.6667 6.66703C15.6667 7.36131 16.1973 7.93166 16.8752 7.9946C16.9054 8.00479 16.9813 8.03481 17.0937 8.10976C17.3594 8.28689 17.8865 8.75482 18.4741 9.92998C18.689 10.3598 19.1186 10.6407 19.5985 10.6653C20.0783 10.6899 20.5344 10.4541 20.7921 10.0487L20.9657 9.78381C21.083 9.60771 21.2563 9.35209 21.4765 9.04011C21.9179 8.41479 22.543 7.56982 23.2787 6.68781C24.0171 5.80274 24.8506 4.90017 25.7076 4.14865C26.5783 3.38501 27.4003 2.84253 28.1118 2.59053Z" fill="white" fill-opacity="0.9"/>
<path fill-rule="evenodd" clip-rule="evenodd" d="M19.9546 3.39032C20.3114 2.97206 20.4899 2.76293 20.4244 2.55235C20.359 2.34176 20.1101 2.27507 19.6124 2.14167C18.8658 1.94159 18.0906 1.81139 17.2938 1.75843C15.3468 1.629 13.3159 1.62927 11.3729 1.75843C5.284 2.16317 0.452955 7.07823 0.0557351 13.2246C-0.0185784 14.3745 -0.0185784 15.5639 0.0557351 16.7138C0.203633 19.0023 1.20197 21.0668 2.31174 22.742C2.64418 23.384 2.47098 24.3469 1.8492 25.5252L1.82056 25.5794C1.61165 25.9751 1.40715 26.3624 1.28918 26.6926C1.16417 27.0425 1.03497 27.5981 1.35721 28.1475C1.65328 28.6523 2.12634 28.8372 2.5087 28.9112C2.82614 28.9726 3.2154 28.9819 3.58059 28.9906L3.64156 28.9921C5.53455 29.0382 6.86849 28.4916 7.92507 27.7125L8.05209 27.6189C8.21146 27.5017 8.29114 27.4431 8.39473 27.4303C8.49831 27.4174 8.58937 27.4545 8.77148 27.5287C8.86168 27.5655 8.9631 27.6072 9.07785 27.6545C9.7997 27.9518 10.6196 28.1299 11.3729 28.18C13.3159 28.3091 15.3468 28.3094 17.2938 28.18C23.3827 27.7752 28.2137 22.8602 28.6109 16.7138C28.6852 15.5639 28.6852 14.3745 28.6109 13.2246C28.4696 11.0379 27.7671 9.00705 26.6464 7.27971C26.4178 6.92747 26.3036 6.75134 26.1068 6.7359C25.9099 6.72046 25.7667 6.87989 25.4801 7.19875C25.2537 7.45066 25.0312 7.70854 24.8145 7.96823C24.1221 8.79824 23.5302 9.59818 23.1105 10.1927C22.9044 10.4846 22.7428 10.7229 22.6343 10.8857L22.4708 11.1351C21.8252 12.1395 20.6906 12.7231 19.4962 12.6619C18.2964 12.6005 17.2225 11.8982 16.6852 10.8237C16.504 10.4611 16.3453 10.2133 16.2238 10.0491C16.1688 9.97477 16.1413 9.93763 16.0941 9.90237C16.0469 9.86712 15.9849 9.84456 15.8608 9.79944C14.5803 9.33377 13.6667 8.10751 13.6667 6.66627C13.6667 4.82532 15.1591 3.33294 17 3.33294L17.0195 3.33303C17.2179 3.33497 17.7022 3.36081 18.1844 3.51431C18.444 3.59088 18.718 3.6952 19.0011 3.83362C19.1145 3.88909 19.1713 3.91683 19.2141 3.92711C19.34 3.95734 19.4489 3.93411 19.5515 3.85506C19.5864 3.8282 19.6227 3.7847 19.6952 3.69769C19.7799 3.59623 19.8664 3.49365 19.9546 3.39032ZM8.66667 18.6667C8.66667 19.219 9.11438 19.6667 9.66667 19.6667H19C19.5523 19.6667 20 19.219 20 18.6667C20 18.1144 19.5523 17.6667 19 17.6667H9.66667C9.11438 17.6667 8.66667 18.1144 8.66667 18.6667ZM8.66667 12.0001C8.66667 12.5523 9.11438 13.0001 9.66667 13.0001H14.3333C14.8856 13.0001 15.3333 12.5523 15.3333 12.0001C15.3333 11.4478 14.8856 11.0001 14.3333 11.0001H9.66667C9.11438 11.0001 8.66667 11.4478 8.66667 12.0001Z" fill="white" fill-opacity="0.9"/>
</svg>
