<svg width="13" height="13" viewBox="0 0 13 13" fill="none" xmlns="http://www.w3.org/2000/svg">
<path fill-rule="evenodd" clip-rule="evenodd" d="M10.156 0.554174C9.70136 7.12772e-06 9.02518 0 7.91182 0H4.61848C3.50511 0 2.82893 7.12772e-06 2.37426 0.554174C2.10159 0.888073 2.02545 1.26175 2.03711 1.75L1.74852 1.75C1.42345 1.74997 1.13502 1.74995 0.906689 1.78169C0.661942 1.8157 0.400195 1.89631 0.207711 2.12819C0.0125158 2.36334 -0.014065 2.63619 0.00528317 2.88233C0.0230032 3.10776 0.086215 3.3825 0.156326 3.68722L0.391107 4.70817C0.763351 6.3269 2.0876 7.53273 3.70172 7.84106C4.06377 8.41572 4.47026 8.86566 4.90819 9.16992C4.33509 9.54847 3.8819 10.1519 3.60037 10.8505C3.44785 11.229 3.47885 11.6291 3.62815 11.9423C3.77226 12.2447 4.07288 12.5417 4.4968 12.5417H8.0449C8.46883 12.5417 8.76944 12.2447 8.91356 11.9423C9.06285 11.6291 9.09386 11.229 8.94134 10.8505C8.65925 10.1505 8.20484 9.54611 7.63015 9.1677C8.06589 8.8638 8.4702 8.41528 8.83039 7.84288C10.4488 7.5375 11.7776 6.3301 12.1506 4.70817L12.3854 3.68723C12.4555 3.3825 12.5187 3.10776 12.5364 2.88233C12.5558 2.63619 12.5292 2.36334 12.334 2.12819C12.1415 1.89631 11.8797 1.8157 11.635 1.78169C11.4067 1.74995 11.1182 1.74997 10.7932 1.75L10.4932 1.75C10.5048 1.26175 10.4287 0.888073 10.156 0.554174ZM10.4179 2.625C10.4105 2.68762 10.4029 2.75177 10.395 2.81751C10.2114 4.34437 9.86304 5.68338 9.39509 6.76072C10.3429 6.35115 11.0639 5.52934 11.2978 4.51208L11.5258 3.52093C11.6049 3.17673 11.6521 2.96645 11.6641 2.81376C11.6697 2.74299 11.6652 2.70759 11.6618 2.69255C11.6612 2.68963 11.6606 2.6877 11.6602 2.68655C11.6599 2.68627 11.6565 2.68379 11.648 2.68C11.629 2.67155 11.5899 2.65883 11.5145 2.64835C11.3538 2.62601 11.1273 2.625 10.7639 2.625H10.4179ZM3.13477 6.75558C2.66695 5.67912 2.31859 4.34194 2.13526 2.81751C2.12741 2.75177 2.11975 2.68762 2.11239 2.625H1.77783C1.41437 2.625 1.18791 2.62601 1.02715 2.64835C0.951779 2.65883 0.912676 2.67155 0.893707 2.68C0.885208 2.68379 0.881901 2.68622 0.881529 2.6865C0.881152 2.68764 0.880504 2.68963 0.87985 2.69255C0.87648 2.70759 0.872029 2.74299 0.877592 2.81376C0.889595 2.96645 0.936773 3.17673 1.01592 3.52093L1.24385 4.51208C1.47681 5.5251 2.1928 6.3443 3.13477 6.75558ZM6.26799 8.75C7.73694 8.75 9.10096 6.21251 9.52648 2.71251C9.64307 1.75001 9.67804 1.35335 9.47985 1.10835C9.29332 0.880848 8.88528 0.869161 7.90598 0.869161H4.62431C3.64501 0.869161 3.23698 0.880848 3.05044 1.10835C2.85225 1.35335 2.88723 1.75001 3.00381 2.71251C3.42934 6.21251 4.79905 8.75 6.26799 8.75ZM4.41194 11.1776C4.81064 10.1882 5.53511 9.625 6.27085 9.625C7.0066 9.625 7.73107 10.1882 8.12976 11.1776C8.18678 11.319 8.17222 11.464 8.12368 11.5658C8.084 11.6491 8.04663 11.6644 8.03966 11.6667H4.50205C4.49508 11.6644 4.45771 11.6491 4.41803 11.5658C4.36949 11.464 4.35493 11.319 4.41194 11.1776Z" fill="white"/>
</svg>
