<svg width="22" height="22" viewBox="0 0 22 22" fill="none" xmlns="http://www.w3.org/2000/svg">
<path d="M10.7504 0C7.85086 0 5.50035 2.3505 5.50035 5.25C5.50035 8.14949 7.85086 10.5 10.7504 10.5C13.6498 10.5 16.0004 8.14949 16.0004 5.25C16.0004 2.3505 13.6498 0 10.7504 0Z" fill="white"/>
<path d="M9.50695 20.6032L9.50455 20.5648L9.551 19.5655C9.59805 18.9465 9.65526 18.1937 9.96678 17.4767C10.2799 16.7561 10.7926 16.2027 11.2112 15.751L13.3466 13.4374C13.619 13.1423 13.7553 12.9947 13.7121 12.8348C13.669 12.6749 13.4841 12.6181 13.1144 12.5043C12.5374 12.3269 11.9488 12.1963 11.3549 12.1125C10.2911 11.9625 9.20929 11.9625 8.14543 12.1125C6.68096 12.3191 5.24889 12.8102 3.94404 13.5872C3.82776 13.6564 3.68409 13.7375 3.52149 13.8292C2.80868 14.2313 1.73106 14.8393 0.992896 15.5618C0.531228 16.0137 0.092574 16.6092 0.0128283 17.3388C-0.0719782 18.1146 0.266485 18.8427 0.945503 19.4896C2.11695 20.6056 3.52274 21.5 5.34104 21.5H8.79976C9.18508 21.5 9.37775 21.5 9.4667 21.4047C9.55565 21.3094 9.53942 21.074 9.50695 20.6032Z" fill="white"/>
<path d="M19.6246 11.2708C18.954 10.8985 18.14 10.9109 17.4809 11.3029C17.2058 11.4665 16.9662 11.7267 16.694 12.0225L12.3808 16.6956C11.9071 17.2082 11.5521 17.5923 11.3427 18.0743C11.1338 18.5551 11.0933 19.0793 11.039 19.782L11.0164 20.0725C11.007 20.1918 10.9948 20.3458 11.0024 20.4812C11.0116 20.6467 11.0537 20.8995 11.2518 21.1244C11.4522 21.3518 11.7006 21.4244 11.8685 21.4524C12.0028 21.4748 12.1573 21.4787 12.2737 21.4816L12.5542 21.489C13.3543 21.5106 13.9633 21.527 14.5284 21.3063C15.0919 21.0862 15.5326 20.6611 16.1146 20.0997L20.5047 15.8713C20.7952 15.5922 21.0492 15.3481 21.2081 15.0692C21.5859 14.4064 21.5975 13.5926 21.2392 12.9192C21.0884 12.6358 20.8417 12.3843 20.5593 12.0966L20.4321 11.9666C20.1516 11.6793 19.9044 11.4262 19.6246 11.2708Z" fill="white"/>
</svg>
