<svg width="18" height="18" viewBox="0 0 18 18" fill="none" xmlns="http://www.w3.org/2000/svg">
<path d="M4.74523 1.25007C5.7642 1.25007 6.11191 1.25957 6.40493 1.36945C7.09445 1.62801 7.39699 2.23315 7.8584 3.15608L7.94706 3.3334H4.79167C4.44649 3.3334 4.16667 3.61322 4.16667 3.9584C4.16667 4.30358 4.44649 4.5834 4.79167 4.5834H8.94576C8.95445 4.58358 8.96316 4.58358 8.97187 4.5834H12.9167C13.8075 4.5834 14.4285 4.58416 14.9073 4.63286C15.3756 4.6805 15.6379 4.76879 15.8334 4.8994C16.0381 5.03619 16.2139 5.21197 16.3507 5.41671C16.473 5.59975 16.5667 5.90126 16.6167 6.44124C16.6661 6.97581 16.6667 7.65307 16.6667 8.54173C16.6667 8.88691 16.9465 9.16673 17.2917 9.16673C17.6368 9.16673 17.9167 8.88691 17.9167 8.54173V8.51424C17.9167 7.65909 17.9167 6.92482 17.8613 6.3262C17.8059 5.72659 17.689 5.16976 17.39 4.72224C17.162 4.38102 16.869 4.08805 16.5278 3.86006C16.0927 3.56934 15.6009 3.44697 15.0338 3.38927C14.4843 3.33338 13.7996 3.33339 12.9504 3.3334L9.3446 3.3334L8.98949 2.62316C8.96355 2.57129 8.93724 2.51805 8.91038 2.4637C8.51703 1.66775 8.00672 0.63511 6.84383 0.199033C6.31144 -0.000609979 5.71837 -0.000347367 4.86053 3.24634e-05L4.71626 6.60903e-05C3.98398 5.88384e-05 3.39337 5.30264e-05 2.91641 0.0420968C2.42497 0.0854178 1.9949 0.177051 1.60215 0.396229C1.09611 0.678629 0.678563 1.09618 0.396164 1.60222C0.176985 1.99497 0.085352 2.42503 0.0420311 2.91648C-1.2576e-05 3.39344 -6.87984e-06 3.98404 1.82363e-07 4.71632V7.33955C-1.03568e-05 9.2632 -1.8614e-05 10.7707 0.158122 11.947C0.319989 13.1509 0.657772 14.1009 1.40345 14.8466C2.0644 15.5076 2.88704 15.849 3.90748 16.0305C4.9099 16.2089 6.15703 16.2415 7.70559 16.2483C8.05077 16.2499 8.33181 15.9713 8.33333 15.6261C8.33484 15.2809 8.05625 14.9999 7.71107 14.9983C6.1498 14.9915 5.00718 14.9566 4.12645 14.7998C3.26373 14.6464 2.70981 14.3852 2.28733 13.9627C1.81262 13.488 1.54021 12.8458 1.39698 11.7804C1.25133 10.6971 1.25 9.27359 1.25 7.29173V4.74529C1.25 3.97726 1.25057 3.44185 1.2872 3.02624C1.32311 2.61885 1.38995 2.38652 1.4877 2.21136C1.65714 1.90773 1.90767 1.6572 2.21129 1.48776C2.38645 1.39001 2.61878 1.32318 3.02618 1.28727C3.44179 1.25063 3.97719 1.25007 4.74523 1.25007Z" fill="#161616"/>
<path d="M10.625 10.8333C10.2798 10.8333 10 11.1132 10 11.4583C10 11.8035 10.2798 12.0833 10.625 12.0833H17.2917C17.6368 12.0833 17.9167 11.8035 17.9167 11.4583C17.9167 11.1132 17.6368 10.8333 17.2917 10.8333H10.625Z" fill="#161616"/>
<path d="M10.625 13.3333C10.2798 13.3333 10 13.6132 10 13.9583C10 14.3035 10.2798 14.5833 10.625 14.5833H17.2917C17.6368 14.5833 17.9167 14.3035 17.9167 13.9583C17.9167 13.6132 17.6368 13.3333 17.2917 13.3333H10.625Z" fill="#161616"/>
<path d="M10.6251 15.8332C10.28 15.8331 10.0001 16.113 10.0001 16.4581C10.0001 16.8033 10.2799 17.0831 10.6251 17.0832L13.9583 17.0833C14.3035 17.0834 14.5833 16.8035 14.5833 16.4584C14.5834 16.1132 14.3035 15.8334 13.9584 15.8333L10.6251 15.8332Z" fill="#161616"/>
</svg>
