<svg width="18" height="18" viewBox="0 0 18 18" fill="none" xmlns="http://www.w3.org/2000/svg">
<path fill-rule="evenodd" clip-rule="evenodd" d="M4.16667 8.54167C4.16667 6.12542 6.12542 4.16667 8.54167 4.16667C10.9579 4.16667 12.9167 6.12542 12.9167 8.54167C12.9167 10.9579 10.9579 12.9167 8.54167 12.9167C6.12542 12.9167 4.16667 10.9579 4.16667 8.54167ZM8.54167 5.41667C6.81578 5.41667 5.41667 6.81578 5.41667 8.54167C5.41667 10.2676 6.81578 11.6667 8.54167 11.6667C10.2676 11.6667 11.6667 10.2676 11.6667 8.54167C11.6667 6.81578 10.2676 5.41667 8.54167 5.41667Z" fill="white"/>
<path d="M13.1315 4.79167C13.5917 4.79167 13.9648 4.41857 13.9648 3.95833C13.9648 3.4981 13.5917 3.125 13.1315 3.125H13.124C12.6638 3.125 12.2907 3.4981 12.2907 3.95833C12.2907 4.41857 12.6638 4.79167 13.124 4.79167H13.1315Z" fill="white"/>
<path fill-rule="evenodd" clip-rule="evenodd" d="M8.58931 1.90615e-07C10.4149 -1.09356e-05 11.8488 -1.88872e-05 12.9683 0.150495C14.1155 0.304734 15.0257 0.627262 15.7409 1.34243C16.4561 2.05759 16.7786 2.9678 16.9328 4.11502C17.0834 5.23453 17.0833 6.66842 17.0833 8.494V8.58931C17.0833 10.4149 17.0834 11.8488 16.9328 12.9683C16.7786 14.1155 16.4561 15.0257 15.7409 15.7409C15.0257 16.4561 14.1155 16.7786 12.9683 16.9328C11.8488 17.0834 10.4149 17.0833 8.58933 17.0833H8.49403C6.66845 17.0833 5.23453 17.0834 4.11502 16.9328C2.96781 16.7786 2.05759 16.4561 1.34243 15.7409C0.627263 15.0257 0.304734 14.1155 0.150495 12.9683C-1.97813e-05 11.8488 -1.09381e-05 10.4149 1.90879e-07 8.58931L1.90879e-07 8.49402C-1.09381e-05 6.66843 -1.97813e-05 5.23453 0.150495 4.11502C0.304734 2.96781 0.627263 2.05759 1.34243 1.34243C2.05759 0.627262 2.96781 0.304734 4.11502 0.150495C5.23453 -1.88872e-05 6.66842 -1.09356e-05 8.49399 1.90615e-07L8.58931 1.90615e-07ZM4.28158 1.38935C3.27298 1.52495 2.67052 1.78211 2.22631 2.22631C1.78211 2.67052 1.52495 3.27298 1.38935 4.28158C1.25133 5.30816 1.25 6.65802 1.25 8.54167C1.25 10.4253 1.25133 11.7752 1.38935 12.8018C1.52495 13.8104 1.78211 14.4128 2.22631 14.857C2.67052 15.3012 3.27298 15.5584 4.28158 15.694C5.30816 15.832 6.65802 15.8333 8.54167 15.8333C10.4253 15.8333 11.7752 15.832 12.8018 15.694C13.8104 15.5584 14.4128 15.3012 14.857 14.857C15.3012 14.4128 15.5584 13.8104 15.694 12.8018C15.832 11.7752 15.8333 10.4253 15.8333 8.54167C15.8333 6.65802 15.832 5.30816 15.694 4.28158C15.5584 3.27298 15.3012 2.67052 14.857 2.22631C14.4128 1.78211 13.8104 1.52495 12.8018 1.38935C11.7752 1.25133 10.4253 1.25 8.54167 1.25C6.65802 1.25 5.30816 1.25133 4.28158 1.38935Z" fill="white"/>
</svg>
