<svg width="22" height="22" viewBox="0 0 22 22" fill="none" xmlns="http://www.w3.org/2000/svg">
<path fill-rule="evenodd" clip-rule="evenodd" d="M7.05035 0.0851107C7.6864 0.175745 8.25638 0.375673 8.70973 0.856154C9.15726 1.33048 9.33801 1.9164 9.42082 2.56915C9.50004 3.19372 9.50002 3.98274 9.5 4.93939L9.50001 7.29675C9.50007 7.69071 9.50014 8.06238 9.4598 8.35156C9.4191 8.64334 9.30678 9.10257 8.85596 9.35828C8.38692 9.62433 7.93013 9.46027 7.66251 9.32632C7.40662 9.19823 7.1099 8.98847 6.80396 8.7722L6.65824 8.66922C6.12012 8.289 5.97655 8.19738 5.82819 8.14977C5.68214 8.1029 5.51931 8.09468 4.87223 8.09468H3.8316C3.33857 8.09469 2.92451 8.0947 2.585 8.06745C2.22977 8.03894 1.89356 7.97714 1.57247 7.81845C0.982019 7.52664 0.517598 7.02902 0.250892 6.42284C0.107887 6.0978 0.0515938 5.75727 0.0253309 5.3897C-1.27964e-05 5.03499 -6.90121e-06 4.60059 2.38606e-07 4.07437L2.38606e-07 4.02033C-6.90121e-06 3.49411 -1.27945e-05 3.0597 0.0253309 2.70499C0.0515938 2.33742 0.107887 1.99688 0.250892 1.67185C0.517598 1.06566 0.982019 0.568049 1.57247 0.276238C1.89356 0.117545 2.22977 0.0557438 2.585 0.0272332C2.92452 -1.59927e-05 3.33856 -7.0327e-06 3.8316 3.63651e-06L4.80449 1.30041e-06C5.70079 -3.1829e-05 6.45264 -5.96195e-05 7.05035 0.0851107ZM6.83874 1.57011C6.35928 1.50179 5.71524 1.5 4.75 1.5L3.86111 1.5C3.33084 1.5 2.97737 1.50057 2.70501 1.52243C2.44161 1.54357 2.31781 1.58106 2.23706 1.62097C1.97521 1.75039 1.75461 1.9788 1.62388 2.27593C1.5795 2.3768 1.5421 2.52381 1.52152 2.81189C1.50045 3.10679 1.5 3.48737 1.5 4.04734C1.5 4.60732 1.50045 4.9879 1.52152 5.2828C1.5421 5.57088 1.5795 5.71789 1.62388 5.81876C1.75461 6.11589 1.97521 6.3443 2.23706 6.47371C2.31781 6.51362 2.44161 6.55112 2.70501 6.57226C2.97737 6.59412 3.33084 6.59468 3.86111 6.59468L4.96256 6.59463C5.47544 6.59421 5.88878 6.59387 6.28652 6.72151C6.68206 6.84843 7.02231 7.08925 7.4487 7.39103L7.62809 7.51784C7.77044 7.61842 7.89066 7.70331 7.99674 7.77558C7.99961 7.63565 8 7.46355 8 7.24851V4.98944C8 3.97016 7.99858 3.27694 7.93274 2.75792C7.8691 2.25621 7.75696 2.03209 7.6187 1.88556C7.48626 1.74519 7.29195 1.63469 6.83874 1.57011Z" fill="#F8F8F8"/>
<path fill-rule="evenodd" clip-rule="evenodd" d="M11.0137 1.75C11.0137 1.33579 11.3494 1 11.7637 1C16.01 1 19.6206 3.7142 20.9587 7.50007C21.2609 8.35517 21.4472 9.2646 21.4989 10.209C21.5215 10.6226 21.2046 10.9762 20.791 10.9989C20.3774 11.0215 20.0238 10.7046 20.0011 10.291C19.9673 9.67303 19.8655 9.07367 19.7033 8.5L15.4218 8.5C15.4686 9.06226 15.4981 9.64281 15.509 10.2363C15.5165 10.6505 15.1869 10.9923 14.7728 10.9999C14.3586 11.0074 14.0168 10.6778 14.0092 10.2637C13.9981 9.65495 13.9663 9.06504 13.9163 8.5H11.7637C11.3494 8.5 11.0137 8.16421 11.0137 7.75C11.0137 7.33579 11.3494 7 11.7637 7L13.7326 7C13.5795 6.03681 13.3705 5.18072 13.1216 4.47162C12.8681 3.74929 12.5874 3.22039 12.3144 2.88676C12.0367 2.54728 11.8467 2.5 11.7637 2.5C11.3494 2.5 11.0137 2.16421 11.0137 1.75ZM14.0448 2.81943C14.2272 3.16983 14.391 3.55883 14.537 3.97488C14.84 4.83816 15.0825 5.86463 15.2501 7L19.1143 7C18.0856 4.98768 16.2551 3.45403 14.0448 2.81943Z" fill="#F8F8F8"/>
<path fill-rule="evenodd" clip-rule="evenodd" d="M0.75 10C1.16421 10 1.5 10.3358 1.5 10.75C1.5 11.5309 1.60829 12.2855 1.81035 13L6.09184 13C6.05863 12.601 6.03412 12.1929 6.01882 11.7776C6.00357 11.3637 6.32676 11.0158 6.74069 11.0005C7.15463 10.9853 7.50255 11.3085 7.5178 11.7224C7.53393 12.1602 7.56078 12.5868 7.59735 13H9.75C10.1642 13 10.5 13.3358 10.5 13.75C10.5 14.1642 10.1642 14.5 9.75 14.5H7.78108C7.94518 15.5328 8.17353 16.4415 8.44569 17.1773C8.69508 17.8516 8.96658 18.3405 9.22723 18.6468C9.49085 18.9567 9.66983 19 9.75 19C10.1642 19 10.5 19.3358 10.5 19.75C10.5 20.1642 10.1642 20.5 9.75 20.5C5.50362 20.5 1.8931 17.7858 0.554987 14C0.195355 12.9825 2.38606e-07 11.8882 2.38606e-07 10.75C2.38606e-07 10.3358 0.335787 10 0.75 10ZM7.46887 18.6806C7.31158 18.3784 7.16846 18.0481 7.03884 17.6977C6.70639 16.7988 6.44231 15.7107 6.2636 14.5L2.39934 14.5C3.42802 16.5123 5.2586 18.046 7.46887 18.6806Z" fill="#F8F8F8"/>
<path fill-rule="evenodd" clip-rule="evenodd" d="M16.6955 12C15.7992 12 15.0474 11.9999 14.4497 12.0851C13.8136 12.1757 13.2436 12.3757 12.7903 12.8562C12.3428 13.3305 12.162 13.9164 12.0792 14.5691C12 15.1937 12 15.9828 12 16.9394L12 19.2968C11.9999 19.6907 11.9999 20.0624 12.0402 20.3516C12.0809 20.6433 12.1932 21.1026 12.644 21.3583C13.1131 21.6243 13.5699 21.4603 13.8375 21.3263C14.0934 21.1982 14.3901 20.9885 14.696 20.7722L14.8418 20.6692C15.3799 20.289 15.5235 20.1974 15.6718 20.1498C15.8179 20.1029 15.9807 20.0947 16.6278 20.0947H17.6684C18.1615 20.0947 18.5755 20.0947 18.915 20.0675C19.2702 20.0389 19.6064 19.9771 19.9275 19.8185C20.518 19.5266 20.9824 19.029 21.2491 18.4228C21.3921 18.0978 21.4484 17.7573 21.4747 17.3897C21.5 17.035 21.5 16.6006 21.5 16.0744V16.0203C21.5 15.4941 21.5 15.0597 21.4747 14.705C21.4484 14.3374 21.3921 13.9969 21.2491 13.6719C20.9824 13.0657 20.518 12.568 19.9275 12.2762C19.6064 12.1175 19.2702 12.0557 18.915 12.0272C18.5755 12 18.1615 12 17.6684 12L16.6955 12ZM13.8813 13.8856C14.0138 13.7452 14.2081 13.6347 14.6613 13.5701C15.1407 13.5018 15.7848 13.5 16.75 13.5H17.6389C18.1692 13.5 18.5226 13.5006 18.795 13.5224C19.0584 13.5436 19.1822 13.5811 19.263 13.621C19.5248 13.7504 19.7454 13.9788 19.8761 14.2759C19.9205 14.3768 19.9579 14.5238 19.9785 14.8119C19.9996 15.1068 20 15.4874 20 16.0473C20 16.6073 19.9996 16.9879 19.9785 17.2828C19.9579 17.5709 19.9205 17.7179 19.8761 17.8188C19.7454 18.1159 19.5248 18.3443 19.263 18.4737C19.1822 18.5136 19.0584 18.5511 18.795 18.5723C18.5226 18.5941 18.1692 18.5947 17.6389 18.5947L16.5374 18.5946C16.0246 18.5942 15.6112 18.5939 15.2135 18.7215C14.818 18.8484 14.4777 19.0892 14.0513 19.391L13.8719 19.5178C13.7296 19.6184 13.6094 19.7033 13.5033 19.7756C13.5004 19.6357 13.5 19.4636 13.5 19.2485L13.5 16.9894C13.5 15.9702 13.5014 15.2769 13.5673 14.7579C13.6309 14.2562 13.7431 14.0321 13.8813 13.8856Z" fill="#F8F8F8"/>
</svg>
