<svg width="12" height="13" viewBox="0 0 12 13" fill="none" xmlns="http://www.w3.org/2000/svg">
<path fill-rule="evenodd" clip-rule="evenodd" d="M5.68779 3.20833C4.31858 3.20833 3.20862 4.31829 3.20862 5.6875C3.20862 7.05671 4.31858 8.16667 5.68779 8.16667C7.05699 8.16667 8.16695 7.05671 8.16695 5.6875C8.16695 4.31829 7.05699 3.20833 5.68779 3.20833ZM4.08362 5.6875C4.08362 4.80154 4.80183 4.08333 5.68779 4.08333C6.57374 4.08333 7.29195 4.80154 7.29195 5.6875C7.29195 6.57346 6.57374 7.29167 5.68779 7.29167C4.80183 7.29167 4.08362 6.57346 4.08362 5.6875Z" fill="white"/>
<path fill-rule="evenodd" clip-rule="evenodd" d="M5.6884 0C3.45647 0 1.32711 1.3201 0.435829 3.40356C-0.393645 5.34254 0.0553952 6.9926 0.990333 8.40556C1.75687 9.56401 2.87487 10.5979 3.8835 11.5306C4.0758 11.7085 4.26422 11.8827 4.44538 12.0534L4.44635 12.0543C4.78178 12.3683 5.22734 12.5417 5.6884 12.5417C6.14945 12.5417 6.59501 12.3683 6.93045 12.0543C7.10167 11.8939 7.27917 11.7304 7.46023 11.5636C8.47985 10.6241 9.61357 9.57953 10.3881 8.40634C11.322 6.99193 11.7694 5.34014 10.941 3.40356C10.0497 1.3201 7.92032 0 5.6884 0ZM1.24031 3.74771C1.98629 2.00392 3.78709 0.875 5.6884 0.875C7.58971 0.875 9.39051 2.00392 10.1365 3.74771C10.8202 5.3459 10.4752 6.68638 9.65793 7.92424C8.94769 9 7.90728 9.95994 6.88457 10.9036C6.69925 11.0746 6.51451 11.245 6.33242 11.4155C6.16187 11.5752 5.93116 11.6667 5.6884 11.6667C5.44582 11.6667 5.21527 11.5753 5.04476 11.4159C4.85083 11.2332 4.65385 11.0508 4.45631 10.8679C3.44664 9.93286 2.42272 8.98465 1.72005 7.92272C0.902 6.68641 0.555738 5.34796 1.24031 3.74771Z" fill="white"/>
</svg>
