<svg width="22" height="22" viewBox="0 0 22 22" fill="none" xmlns="http://www.w3.org/2000/svg">
<path fill-rule="evenodd" clip-rule="evenodd" d="M14.25 7.27712V5.5C14.25 2.46243 11.7876 0 8.75 0C5.71243 0 3.25 2.46243 3.25 5.5V7.27712C1.68233 7.75686 0.499246 9.13607 0.274518 10.8052C0.126363 11.9056 0 13.0618 0 14.25C0 15.4382 0.126363 16.5944 0.274518 17.6948C0.546088 19.7118 2.21716 21.3055 4.27522 21.4001C5.28013 21.4463 6.29598 21.4769 7.36567 21.491C7.92357 21.4984 8.20254 21.5021 8.29228 21.3606C8.38203 21.219 8.24344 20.9348 7.96627 20.3665C7.11726 18.6255 7.42771 16.4697 8.89763 15.032C10.0141 13.9399 11.54 13.5163 12.972 13.7473C13.1413 13.7747 13.226 13.7883 13.294 13.7667C13.362 13.7452 13.418 13.6904 13.5301 13.5808L14.9205 12.2209C15.2275 11.9204 15.6078 11.5481 15.986 11.2659C16.1798 11.1213 16.4187 10.9644 16.7022 10.8304C16.9572 10.7099 17.0847 10.6497 17.1299 10.5474C17.1751 10.4452 17.1419 10.337 17.0756 10.1206C16.6608 8.76632 15.5974 7.68947 14.25 7.27712ZM8.75 2C6.817 2 5.25 3.567 5.25 5.5V7.06016C6.36773 7.02048 7.51538 7 8.75 7C9.98463 7 11.1323 7.02048 12.25 7.06016V5.5C12.25 3.567 10.683 2 8.75 2Z" fill="white"/>
<path fill-rule="evenodd" clip-rule="evenodd" d="M17.6471 15.2677C17.4394 15.0645 17.3355 14.9629 17.3375 14.8341C17.3394 14.7052 17.4441 14.6088 17.6533 14.4162C17.7091 14.3648 17.7627 14.3162 17.8134 14.2709C17.9659 14.1345 18.0422 14.0663 18.1566 14.0662C18.2711 14.0661 18.3471 14.1339 18.4991 14.2694C18.6514 14.4051 18.8326 14.5745 19.0349 14.7724L19.8204 15.5407C20.2096 15.9214 20.8349 15.9157 21.2171 15.528C21.5992 15.1403 21.5935 14.5174 21.2043 14.1368L20.4187 13.3684C20.0828 13.0397 19.7246 12.6893 19.4282 12.4681C19.0967 12.2207 18.683 12 18.1556 12C17.6283 12 17.2146 12.2207 16.8831 12.4681C16.5867 12.6893 16.2681 13.001 15.9322 13.3297L13.9848 15.2343C13.8431 15.3728 13.7723 15.4421 13.689 15.4607C13.6056 15.4793 13.4979 15.4418 13.2825 15.3668C12.1554 14.9746 10.8502 15.2204 9.94647 16.1043C8.68451 17.3386 8.68451 19.3474 9.94647 20.5817C11.1984 21.8061 13.2208 21.8061 14.4727 20.5817C15.3725 19.7016 15.6307 18.4278 15.2473 17.3217C15.1731 17.1076 15.136 17.0005 15.1535 16.9187C15.1545 16.9141 15.1552 16.9109 15.1564 16.9063C15.1773 16.8253 15.2473 16.7569 15.3872 16.62C15.5777 16.4338 15.6729 16.3406 15.7901 16.3372C15.796 16.337 15.8018 16.337 15.8076 16.3372C15.9248 16.3406 16.02 16.4338 16.2105 16.62L16.6781 17.0774C17.0673 17.4581 17.6926 17.4524 18.0748 17.0647C18.4569 16.677 18.4512 16.0542 18.062 15.6735L17.6471 15.2677ZM11.3303 17.5082C11.8139 17.0353 12.6052 17.0353 13.0888 17.5082C13.5623 17.9713 13.5623 18.7146 13.0888 19.1777C12.6052 19.6507 11.8139 19.6507 11.3303 19.1777C10.8569 18.7146 10.8569 17.9713 11.3303 17.5082Z" fill="white"/>
<path d="M16.9042 18.8156C16.9097 18.8166 16.9128 18.8224 16.9106 18.8275C16.9066 18.8366 16.893 18.8331 16.894 18.8232C16.8945 18.8181 16.8993 18.8146 16.9042 18.8156Z" fill="white"/>
</svg>
