<svg width="88" height="88" viewBox="0 0 88 88" fill="none" xmlns="http://www.w3.org/2000/svg">
<g clip-path="url(#clip0_10296_14962)">
<path fill-rule="evenodd" clip-rule="evenodd" d="M21.328 0H52.7998L79.1998 26.4V76.5437C79.1998 82.8765 73.7193 87.9999 66.9685 87.9999H21.0545C14.2803 87.9999 8.7998 82.8765 8.7998 76.5437V11.4561C8.79969 5.12332 14.5537 0 21.328 0Z" fill="#D92D20"/>
<path d="M52.8567 17.952V0L79.2003 26.4H61.6379C53.7348 26.4 52.4908 20.768 52.8567 17.952Z" fill="white" fill-opacity="0.3"/>
<path d="M35.7491 66.4004V59.8549H38.3315C38.8279 59.8549 39.2508 59.9498 39.6003 60.1394C39.9497 60.3269 40.216 60.5879 40.3993 60.9224C40.5847 61.2548 40.6773 61.6383 40.6773 62.073C40.6773 62.5076 40.5836 62.8912 40.3961 63.2235C40.2086 63.5559 39.9369 63.8148 39.5811 64.0002C39.2274 64.1855 38.7991 64.2782 38.2963 64.2782H36.6503V63.1692H38.0726C38.3389 63.1692 38.5584 63.1234 38.731 63.0318C38.9057 62.938 39.0356 62.8091 39.1209 62.6451C39.2082 62.4789 39.2519 62.2882 39.2519 62.073C39.2519 61.8556 39.2082 61.666 39.1209 61.5041C39.0356 61.34 38.9057 61.2132 38.731 61.1238C38.5562 61.0321 38.3347 60.9863 38.0662 60.9863H37.1329V66.4004H35.7491ZM43.8965 66.4004H41.5762V59.8549H43.9157C44.5741 59.8549 45.1408 59.986 45.616 60.248C46.0911 60.508 46.4565 60.8819 46.7122 61.3699C46.97 61.8578 47.0989 62.4416 47.0989 63.1213C47.0989 63.8031 46.97 64.389 46.7122 64.8791C46.4565 65.3691 46.089 65.7452 45.6096 66.0073C45.1323 66.2694 44.5613 66.4004 43.8965 66.4004ZM42.9601 65.2147H43.839C44.2481 65.2147 44.5922 65.1422 44.8713 64.9973C45.1526 64.8503 45.3635 64.6234 45.5041 64.3166C45.6469 64.0076 45.7183 63.6092 45.7183 63.1213C45.7183 62.6376 45.6469 62.2424 45.5041 61.9355C45.3635 61.6287 45.1536 61.4029 44.8745 61.258C44.5954 61.1131 44.2513 61.0407 43.8422 61.0407H42.9601V65.2147ZM48.1241 66.4004V59.8549H52.4579V60.9959H49.5079V62.5556H52.1702V63.6966H49.5079V66.4004H48.1241Z" fill="white"/>
</g>
<defs>
<clipPath id="clip0_10296_14962">
<rect width="88" height="88" fill="white"/>
</clipPath>
</defs>
</svg>
