<svg width="20" height="22" viewBox="0 0 20 22" fill="none" xmlns="http://www.w3.org/2000/svg">
<path d="M8.49761 19.5455C6.88899 19.5455 5.75786 19.5442 4.88841 19.4533C4.03449 19.3639 3.55057 19.1972 3.19274 18.9441C2.95128 18.7734 2.73891 18.5723 2.56111 18.3479C2.30555 18.0254 2.13611 17.5927 2.04387 16.8059C1.94894 15.9961 1.94737 14.9388 1.94737 13.4153L1.94734 10.5152C1.94732 10.2482 1.9475 9.60963 2.22811 9.13745C2.40105 8.84648 2.62246 8.60337 2.84991 8.47955C3.21642 8.28003 3.63662 8.16667 4.08328 8.16667C4.23042 8.16667 4.45441 8.17622 4.63201 8.18446C4.78693 8.19174 4.95551 8.19966 5.12365 8.20315C5.50374 8.21105 5.94728 8.19904 6.37543 8.08432C7.2094 7.86086 7.86081 7.20945 8.08427 6.37548C8.19899 5.94733 8.211 5.50379 8.20311 5.1237C8.19962 4.9557 8.19169 4.78703 8.18442 4.63222C8.18379 4.61862 8.18314 4.60477 8.1825 4.59103C8.17476 4.42524 8.16662 4.25067 8.16662 4.1148C8.16662 3.64711 8.2909 3.20845 8.50824 2.83004C8.63494 2.60945 8.8557 2.40756 9.16044 2.23025C9.62259 1.96134 10.176 1.95885 10.5141 1.95732C10.8523 1.9558 11.2091 1.95463 11.5072 1.95463C13.3413 1.95463 14.0084 1.96858 14.5118 2.14593C15.3844 2.45339 16.0501 3.09503 16.3602 3.8804C16.4379 4.07704 16.4927 4.33546 16.5221 4.78341C16.5521 5.24008 16.5526 5.82303 16.5526 6.66329V8.79551C16.5526 9.33524 16.9886 9.77278 17.5263 9.77278C18.0641 9.77278 18.5 9.33524 18.5 8.79551V6.63006C18.5 5.83091 18.5 5.18335 18.4653 4.65477C18.4295 4.11014 18.3539 3.62447 18.1706 3.16031C17.6418 1.821 16.5334 0.78673 15.1568 0.301725C14.298 -0.000857592 13.2656 -0.000497465 11.7106 4.49518e-05L11.2709 7.29197e-05C8.43131 -0.000286831 6.74465 -0.000499308 5.36221 0.486577C3.14221 1.26875 1.36848 2.9315 0.525086 5.06755C0.243976 5.77952 0.119439 6.54422 0.0591869 7.46107C-4.89503e-06 8.36179 -2.47807e-06 9.47441 6.05028e-07 10.8927V13.4762C-2.10495e-05 14.9243 -3.77595e-05 16.0969 0.109846 17.0343C0.223959 18.0077 0.467213 18.8456 1.03704 19.5646C1.33222 19.9371 1.68077 20.2659 2.07113 20.5419C2.8159 21.0686 3.67712 21.2917 4.68654 21.3973C5.66879 21.5 6.90159 21.5 8.4427 21.5H12.6579C13.1956 21.5 13.6316 21.0625 13.6316 20.5227C13.6316 19.983 13.1956 19.5455 12.6579 19.5455H8.49761Z" fill="white"/>
<path fill-rule="evenodd" clip-rule="evenodd" d="M5.76565 11C5.5485 10.9999 5.32026 10.9999 5.1287 11.0244C4.90902 11.0525 4.62717 11.1242 4.38655 11.3534C4.14078 11.5874 4.05854 11.8703 4.02661 12.0965C3.99982 12.2863 3.99992 12.5105 4.00001 12.7147L4.00002 16.75C4.00002 17.1642 4.33581 17.5 4.75002 17.5C5.16424 17.5 5.50002 17.1642 5.50002 16.75V15H6.50002C7.60421 15 8.56252 14.1386 8.56252 13C8.56252 11.8614 7.60421 11 6.50002 11L5.76565 11ZM6.50002 13.5H5.50002V12.75C5.50002 12.6508 5.50006 12.5709 5.50123 12.5018C5.58325 12.5001 5.67879 12.5 5.80002 12.5H6.50002C6.84559 12.5 7.06252 12.7579 7.06252 13C7.06252 13.2421 6.84559 13.5 6.50002 13.5Z" fill="white"/>
<path fill-rule="evenodd" clip-rule="evenodd" d="M10.8763 11L10.8538 11C10.71 11 10.5585 10.9999 10.4286 11.0112C10.2828 11.0237 10.0936 11.0547 9.90242 11.1598C9.51939 11.3704 9.35204 11.7067 9.28974 11.998C9.24574 12.2037 9.24917 12.4318 9.25083 12.542C9.25108 12.5586 9.25129 12.5726 9.25129 12.5833V15.9167C9.25129 15.9274 9.25108 15.9414 9.25083 15.958C9.24917 16.0682 9.24574 16.2963 9.28974 16.502C9.35204 16.7933 9.51939 17.1296 9.90242 17.3402C10.0936 17.4453 10.2828 17.4763 10.4286 17.4889C10.5585 17.5001 10.71 17.5 10.8538 17.5L10.8763 17.5C12.7053 17.5 14.2513 16.079 14.2513 14.25C14.2513 12.421 12.7053 11 10.8763 11ZM10.7508 12.5018L10.7508 12.5002C10.7878 12.5 10.8291 12.5 10.8763 12.5C11.9467 12.5 12.7513 13.3176 12.7513 14.25C12.7513 15.1824 11.9467 16 10.8763 16C10.8291 16 10.7878 16 10.7508 15.9998L10.7508 15.9982C10.751 15.9728 10.7513 15.9431 10.7513 15.9167V12.5833C10.7513 12.557 10.751 12.5273 10.7508 12.5018Z" fill="white"/>
<path d="M17.3959 11L18.75 11C19.1642 11 19.5 11.3358 19.5 11.75C19.5 12.1642 19.1642 12.5 18.75 12.5H17.4375C17.0048 12.5 16.7522 12.5015 16.5727 12.5244C16.5266 12.5303 16.4948 12.5367 16.4738 12.5419C16.4702 12.5575 16.4662 12.5788 16.4622 12.6071C16.4393 12.7695 16.4375 13.0016 16.4375 13.4167V13.5H17.875C18.2892 13.5 18.625 13.8358 18.625 14.25C18.625 14.6642 18.2892 15 17.875 15H16.4375V16.75C16.4375 17.1642 16.1017 17.5 15.6875 17.5C15.2733 17.5 14.9375 17.1642 14.9375 16.75L14.9375 13.373C14.9374 13.0181 14.9374 12.6775 14.9769 12.3974C15.0217 12.0805 15.1295 11.7339 15.4266 11.451C15.7184 11.173 16.0672 11.0769 16.3821 11.0366C16.6686 10.9999 17.0194 11 17.3959 11Z" fill="white"/>
</svg>
