<svg width="24" height="27" viewBox="0 0 24 27" fill="none" xmlns="http://www.w3.org/2000/svg">
<path d="M24 21.9131C23.8414 23.1957 23.7721 23.7516 23.1797 25.002L14.084 26.8799C14.2931 25.5286 14.5724 24.4865 15.0254 23.8613L24 21.9131ZM11.3311 13.0684L14.0498 12.4785V3.88965C15.0623 2.75315 15.685 2.24281 16.9072 1.59766V11.8584L24 10.3184C23.8414 11.6006 23.7718 12.1564 23.1797 13.4062L16.9072 14.7324V17.6172L24 16.1162C23.8414 17.3986 23.772 17.9548 23.1797 19.2051L16.9072 20.5V20.5264L14.0498 21.1172V15.3359L11.3311 15.9102V19.5547L11.2852 19.5635C10.6601 20.6595 9.7773 21.9761 8.92676 23.0273L0 24.7275C0.0800426 23.5789 0.2472 22.9314 0.766602 21.7744L8.47363 20.1035V16.5146L1.33008 18.0264C1.41011 16.8779 1.57744 16.2309 2.09668 15.0742L8.47363 13.6885V2.29199C9.48624 1.15533 10.1089 0.645152 11.3311 0V13.0684Z" fill="#1B8354"/>
</svg>
