<svg width="16" height="18" viewBox="0 0 16 18" fill="none" xmlns="http://www.w3.org/2000/svg">
<path d="M16 14.6084C15.8943 15.4635 15.8481 15.8344 15.4531 16.668L9.38965 17.9199C9.52904 17.019 9.7146 16.324 10.0166 15.9072L16 14.6084ZM7.55469 8.71094L9.36621 8.31836V2.59375C10.0413 1.83591 10.4566 1.49558 11.2715 1.06543V7.90527L16 6.87891C15.8943 7.7337 15.8479 8.10425 15.4531 8.9375L11.2715 9.82129V11.7441L16 10.7441C15.8943 11.5989 15.8479 11.9695 15.4531 12.8027L11.2715 13.666V13.6846L9.36621 14.0781V10.2236L7.55469 10.6064V13.0361L7.52344 13.042C7.1067 13.7727 6.51826 14.6507 5.95117 15.3516L0 16.4844C0.0533632 15.7189 0.164597 15.2877 0.510742 14.5166L5.64941 13.4023V11.0098L0.886719 12.0176C0.94008 11.2519 1.05217 10.8201 1.39844 10.0488L5.64941 9.125V1.52832C6.32454 0.770485 6.73977 0.43015 7.55469 0V8.71094Z" fill="#FBFBFB"/>
</svg>
