<svg width="20" height="22" viewBox="0 0 20 22" fill="none" xmlns="http://www.w3.org/2000/svg">
<path d="M8.71632 4.99998C8.80325 5 8.89017 5.00001 8.9771 5.00001V13C8.9771 13.5523 9.43511 14 10.0001 14C10.5651 14 11.0231 13.5523 11.0231 13V5.00001C11.11 5.00001 11.1969 5 11.2837 4.99998C11.4694 4.99994 11.655 4.9999 11.8407 5.00004C12.073 5.00021 12.3505 5.00041 12.5774 4.96723C12.8128 4.93278 13.3669 4.81137 13.6344 4.24525C13.9005 3.68223 13.641 3.19357 13.5138 2.99322C13.3933 2.80322 13.2141 2.59781 13.0652 2.42709C13.0546 2.41493 13.0442 2.40295 13.0339 2.39116C12.481 1.75629 11.6973 0.890113 11.1169 0.411058C10.8307 0.174776 10.47 0.0176718 10.0681 0.00139642C9.61606 -0.0169064 9.20386 0.146063 8.88305 0.41077C8.30235 0.889921 7.51848 1.75645 6.96575 2.39141C6.9555 2.40319 6.94507 2.41515 6.93448 2.4273C6.78565 2.59799 6.60654 2.80342 6.48601 2.99344C6.35889 3.19385 6.0995 3.68246 6.3656 4.24535C6.63317 4.81135 7.18709 4.93277 7.42259 4.96723C7.6494 5.00041 7.92688 5.00021 8.15914 5.00004C8.34487 4.9999 8.5306 4.99994 8.71632 4.99998Z" fill="#1C1C1C" fill-opacity="0.7"/>
<path d="M4.20302 6.97913C4.7438 6.86701 5.0913 6.33772 4.97918 5.79694C4.86705 5.25615 4.33777 4.90866 3.79698 5.02078C2.89779 5.20722 2.12408 5.54004 1.48187 6.15175C0.670923 6.92418 0.319656 7.90199 0.156265 9.05956C-5.6982e-05 10.167 -3.10414e-05 11.5725 9.09858e-07 13.3041V13.4558C-3.10414e-05 15.1873 -5.6982e-05 16.5928 0.156265 17.7003C0.319656 18.8579 0.670923 19.8357 1.48187 20.6081C2.28597 21.374 3.29233 21.6998 4.48389 21.8524C5.63674 22 7.1038 22 8.92983 22H11.0702C12.8962 22 14.3633 22 15.5161 21.8524C16.7077 21.6998 17.714 21.374 18.5181 20.6081C19.3291 19.8357 19.6803 18.8579 19.8437 17.7003C20.0001 16.5928 20 15.1873 20 13.4558V13.3041C20 11.5725 20.0001 10.167 19.8437 9.05956C19.6803 7.90199 19.3291 6.92418 18.5181 6.15175C17.8759 5.54004 17.1022 5.20722 16.203 5.02078C15.6622 4.90866 15.133 5.25615 15.0208 5.79694C14.9087 6.33772 15.2562 6.86701 15.797 6.97913C16.4468 7.11386 16.8417 7.31705 17.1387 7.59994C17.4993 7.94343 17.7339 8.42162 17.8634 9.33909C17.9977 10.2905 18 11.5542 18 13.3799C18 15.2056 17.9977 16.4694 17.8634 17.4208C17.7339 18.3383 17.4993 18.8164 17.1387 19.1599C16.7713 19.51 16.249 19.7422 15.2621 19.8686C14.2511 19.998 12.9126 20 11 20H9C7.08742 20 5.74887 19.998 4.73794 19.8686C3.75099 19.7422 3.22875 19.51 2.86128 19.1599C2.50066 18.8164 2.26614 18.3383 2.13663 17.4208C2.00234 16.4694 2 15.2056 2 13.3799C2 11.5542 2.00234 10.2905 2.13663 9.33909C2.26614 8.42162 2.50066 7.94343 2.86128 7.59994C3.15828 7.31705 3.55322 7.11386 4.20302 6.97913Z" fill="#1C1C1C" fill-opacity="0.7"/>
</svg>
