<svg width="29" height="21" viewBox="0 0 29 21" fill="none" xmlns="http://www.w3.org/2000/svg">
<path fill-rule="evenodd" clip-rule="evenodd" d="M14.3333 15.3333C11.5719 15.3333 9.33333 13.0948 9.33333 10.3333C9.33333 7.57191 11.5719 5.33333 14.3333 5.33333C17.0948 5.33333 19.3333 7.57191 19.3333 10.3333C19.3333 13.0948 17.0948 15.3333 14.3333 15.3333ZM11.3333 10.3333C11.3333 11.9902 12.6765 13.3333 14.3333 13.3333C15.9902 13.3333 17.3333 11.9902 17.3333 10.3333C17.3333 8.67648 15.9902 7.33333 14.3333 7.33333C12.6765 7.33333 11.3333 8.67648 11.3333 10.3333Z" fill="#1C1C1C"/>
<path fill-rule="evenodd" clip-rule="evenodd" d="M14.3333 0C10.9059 0 7.96794 1.50854 5.69374 3.28398C3.41751 5.06101 1.73502 7.15965 0.79388 8.47936L0.722922 8.57831C0.385381 9.04775 0 9.58373 0 10.3333C0 11.0829 0.385381 11.6189 0.722923 12.0884L0.793881 12.1873C1.73502 13.507 3.41751 15.6057 5.69374 17.3827C7.96794 19.1581 10.9059 20.6667 14.3333 20.6667C17.7607 20.6667 20.6987 19.1581 22.9729 17.3827C25.2492 15.6057 26.9316 13.507 27.8728 12.1873L27.9437 12.0884C28.2813 11.6189 28.6667 11.0829 28.6667 10.3333C28.6667 9.58372 28.2813 9.04775 27.9437 8.57831L27.8728 8.47936C26.9316 7.15965 25.2492 5.06101 22.9729 3.28398C20.6987 1.50854 17.7607 0 14.3333 0ZM2.42223 9.6406C3.3025 8.40625 4.8565 6.4749 6.92448 4.86046C8.9945 3.24442 11.5085 2 14.3333 2C17.1582 2 19.6722 3.24442 21.7422 4.86046C23.8102 6.4749 25.3642 8.40625 26.2444 9.6406C26.4622 9.94596 26.5658 10.0951 26.6276 10.2138C26.6669 10.2892 26.6668 10.3099 26.6667 10.3301L26.6667 10.3333L26.6667 10.3365C26.6668 10.3568 26.6669 10.3775 26.6276 10.4529C26.5658 10.5716 26.4622 10.7207 26.2444 11.0261C25.3642 12.2604 23.8102 14.1918 21.7422 15.8062C19.6722 17.4222 17.1582 18.6667 14.3333 18.6667C11.5085 18.6667 8.9945 17.4222 6.92448 15.8062C4.8565 14.1918 3.3025 12.2604 2.42223 11.0261C2.20446 10.7207 2.10083 10.5716 2.03904 10.4529C1.99977 10.3775 1.99988 10.3568 1.99999 10.3365L2 10.3333L1.99999 10.3301C1.99988 10.3099 1.99977 10.2892 2.03904 10.2138C2.10083 10.0951 2.20446 9.94596 2.42223 9.6406Z" fill="#1C1C1C"/>
</svg>
