<svg width="26" height="36" viewBox="0 0 26 36" fill="none" xmlns="http://www.w3.org/2000/svg">
<path fill-rule="evenodd" clip-rule="evenodd" d="M16.3194 0.0209732C16.453 0.0237872 16.5533 0.143721 16.5331 0.275882C16.368 1.26616 16.2602 1.89946 16.1237 2.36447C15.9961 2.79921 15.8827 2.93973 15.7942 3.01824C15.6968 3.10461 15.5453 3.1987 15.1048 3.25957C14.6225 3.32623 13.9642 3.33321 12.9158 3.33321C11.8673 3.33321 11.209 3.32623 10.7267 3.25957C10.2863 3.1987 10.1347 3.10461 10.0373 3.01824C9.94884 2.93973 9.83543 2.79921 9.70784 2.36447C9.5716 1.90023 9.46387 1.26826 9.29928 0.280814C9.27969 0.145648 9.38247 0.0236978 9.51902 0.020837C10.5146 -2.19063e-05 11.6135 -1.12126e-05 12.8228 5.5742e-07H12.8229H12.823H13.0089H13.009H13.0091C14.2211 -1.12409e-05 15.322 -2.19559e-05 16.3194 0.0209732ZM6.34936 0.22509C6.57728 0.194447 6.78469 0.355793 6.81767 0.583387L6.82774 0.652886L6.83183 0.679101L6.84353 0.749357C6.9942 1.65365 7.12525 2.44026 7.30974 3.06886C7.50824 3.74524 7.80592 4.38034 8.37888 4.88868C8.97151 5.41447 9.65405 5.63536 10.3852 5.7364C11.0745 5.83167 11.9251 5.83358 12.9165 5.83358C13.9078 5.83358 14.7585 5.83167 15.4478 5.7364C16.1789 5.63536 16.8615 5.41447 17.4541 4.88868C18.027 4.38034 18.3247 3.74523 18.5232 3.06886C18.7077 2.44026 18.8388 1.65365 18.9894 0.749358L19.0012 0.679118L19.0164 0.579805C19.051 0.353932 19.2575 0.194642 19.484 0.22509C21.2111 0.457294 22.6334 0.949803 23.7587 2.07504C24.8839 3.20027 25.3764 4.62262 25.6086 6.34973C25.8334 8.02154 25.8334 10.1531 25.8333 12.8241V23.0099C25.8334 25.6809 25.8334 27.8125 25.6086 29.4844C25.3764 31.2115 24.8839 32.6338 23.7587 33.759C22.6334 34.8843 21.2111 35.3768 19.484 35.609C17.8122 35.8338 15.6806 35.8337 13.0096 35.8337H12.8238C10.1528 35.8337 8.02117 35.8338 6.34936 35.609C4.62225 35.3768 3.1999 34.8843 2.07466 33.759C0.949431 32.6338 0.456923 31.2115 0.224719 29.4844C-4.76837e-05 27.8126 -2.62726e-05 25.681 5.85219e-07 23.01V23.01V23.01V12.8241V12.8241V12.8241C-2.62726e-05 10.1531 -4.77085e-05 8.02152 0.224719 6.34973C0.456923 4.62262 0.949431 3.20027 2.07466 2.07504C3.1999 0.949803 4.62225 0.457294 6.34936 0.22509ZM10 31.25C10 30.5596 10.5596 30 11.25 30H14.5833C15.2737 30 15.8333 30.5596 15.8333 31.25C15.8333 31.9404 15.2737 32.5 14.5833 32.5H11.25C10.5596 32.5 10 31.9404 10 31.25Z" fill="#1B8354"/>
</svg>
