<svg width="36" height="31" viewBox="0 0 36 31" fill="none" xmlns="http://www.w3.org/2000/svg">
<path fill-rule="evenodd" clip-rule="evenodd" d="M22.7825 0.0625172C19.5275 -0.0208391 16.3041 -0.0208391 13.0491 0.0625172H12.9525C10.4108 0.129202 8.36587 0.179118 6.72753 0.462529C5.01087 0.762612 3.61579 1.3294 2.43912 2.51306C1.26579 3.69672 0.695833 5.06376 0.4025 6.76423C0.1225 8.36467 0.0808333 10.3653 0.0275 12.8326V12.9326C-0.00916667 14.583 -0.00916667 16.2503 0.0275 17.9007V18.0007C0.0825 20.4681 0.124128 22.4687 0.404128 24.0691C0.697461 25.7696 1.26758 27.1366 2.44091 28.3203C3.61758 29.5039 5.01249 30.0707 6.72916 30.3708C8.36749 30.6542 10.4126 30.7041 12.9543 30.7708H13.0508C16.3058 30.8542 19.5292 30.8542 22.7842 30.7708H22.8809C25.4225 30.7041 27.4675 30.6542 29.1058 30.3708C30.8225 30.0707 32.2175 29.5039 33.3942 28.3203C34.5675 27.1366 35.1375 25.7696 35.4308 24.0691C35.7108 22.4687 35.7525 20.4681 35.8058 18.0007V17.9007C35.8425 16.2503 35.8425 14.583 35.8058 12.9326V12.8326C35.7525 10.3653 35.7108 8.36467 35.4308 6.76423C35.1375 5.06376 34.5675 3.69672 33.3942 2.51306C32.2175 1.3294 30.8225 0.762612 29.1058 0.462529C27.4675 0.179118 25.4225 0.129202 22.8809 0.0625172H22.7842H22.7825ZM10.2192 8.4981C9.62423 8.14801 8.85748 8.34809 8.50748 8.94826C8.15581 9.53175 8.35246 10.2986 8.94579 10.6654L13.8491 13.5662C15.3008 14.4165 16.5542 14.9999 17.9158 14.9999C19.2775 14.9999 20.5309 14.4165 21.9826 13.5662L26.8859 10.6654C27.4792 10.2986 27.6775 9.53175 27.3258 8.94826C26.9742 8.34809 26.2075 8.14801 25.6125 8.4981L20.7091 11.399C19.3025 12.2325 18.5542 12.4992 17.9158 12.4992C17.2775 12.4992 16.5292 12.2325 15.1226 11.399L10.2192 8.4981Z" fill="#1B8354"/>
</svg>
