<svg width="33" height="36" viewBox="0 0 33 36" fill="none" xmlns="http://www.w3.org/2000/svg">
<path fill-rule="evenodd" clip-rule="evenodd" d="M16.25 0C7.45752 0 0 7.2659 0 16.1263C0 20.6637 1.91978 24.4568 4.61148 27.5875C7.29159 30.7046 10.7806 33.2186 14.0471 35.2406L14.0685 35.2539L14.0905 35.2664C14.7493 35.6382 15.4934 35.8333 16.25 35.8333C17.0066 35.8333 17.7507 35.6382 18.4095 35.2664L18.4286 35.2555L18.4474 35.244C21.7258 33.2379 25.2154 30.716 27.8944 27.5896C30.5838 24.451 32.5 20.6487 32.5 16.1263C32.5 7.2659 25.0425 0 16.25 0ZM16.25 9.58333C12.5681 9.58333 9.58333 12.5681 9.58333 16.25C9.58333 19.9319 12.5681 22.9167 16.25 22.9167C19.9319 22.9167 22.9167 19.9319 22.9167 16.25C22.9167 12.5681 19.9319 9.58333 16.25 9.58333Z" fill="#1B8354"/>
</svg>
