<svg width="29" height="25" viewBox="0 0 29 25" fill="none" xmlns="http://www.w3.org/2000/svg">
<path d="M11.0813 10.8433C12.388 11.6126 13.36 11.998 14.332 11.998C15.3053 11.998 16.2773 11.6139 17.5853 10.8433L21.508 8.52323C21.984 8.24323 22.1413 7.62996 21.8599 7.15396C21.5799 6.67796 20.9667 6.52054 20.4907 6.80188L16.5693 9.12063C14.604 10.2766 14.06 10.2766 12.0973 9.12063L8.17466 6.80057C7.69999 6.51924 7.08659 6.67786 6.80526 7.15253C6.52393 7.62719 6.68268 8.24059 7.15734 8.52193L11.0813 10.8433Z" fill="#1C1C1C"/>
<path fill-rule="evenodd" clip-rule="evenodd" d="M10.4396 24.6086C11.749 24.6419 13.041 24.6594 14.333 24.6594C15.625 24.6594 16.917 24.6419 18.2263 24.6086L18.2281 24.6085C22.5443 24.4992 24.9226 24.439 26.7157 22.6473C28.505 20.8433 28.5543 18.5286 28.6437 14.3246C28.6717 12.9819 28.6717 11.678 28.6437 10.3353C28.5543 6.13129 28.505 3.81526 26.7116 2.00859C24.921 0.220594 22.5424 0.159333 18.225 0.05C15.605 -0.0166667 13.0583 -0.0166667 10.4383 0.05L10.4365 0.0500456C6.12032 0.15935 3.74208 0.219577 1.94899 2.01133C0.159661 3.81533 0.110333 6.12998 0.021 10.334C-0.007 11.6767 -0.007 12.9806 0.021 14.3233C0.110333 18.5273 0.159698 20.8433 1.95303 22.65C3.7437 24.438 6.12229 24.4993 10.4396 24.6086ZM3.36905 21.2366C2.14105 20.0006 2.10236 18.2073 2.0197 14.2806C1.9917 12.9659 1.9917 11.6886 2.0197 10.3753C2.10236 6.44859 2.14101 4.65667 3.36501 3.42201C4.59024 2.19677 6.438 2.14994 10.488 2.04729C13.0746 1.98062 15.5891 1.9806 18.1744 2.04727C22.2251 2.14993 24.0731 2.19794 25.2957 3.41927C26.5237 4.65527 26.5623 6.44859 26.645 10.3753C26.673 11.6899 26.673 12.9673 26.645 14.2806C26.5623 18.2073 26.5236 19.9993 25.2996 21.234C24.0745 22.4591 22.2271 22.5059 18.178 22.6085L18.1757 22.6086C15.589 22.6753 13.0757 22.6753 10.4904 22.6086C6.43973 22.5059 4.59171 22.4579 3.36905 21.2366Z" fill="#1C1C1C"/>
</svg>
