<svg width="78" height="82" viewBox="0 0 78 82" fill="none" xmlns="http://www.w3.org/2000/svg">
<path d="M17.3206 3.31689H65.8196C72.3907 3.31689 77.7175 8.73178 77.7175 15.4115V57.0994C77.7175 63.7791 72.3907 69.194 65.8196 69.194H63.1356L64.0008 77.0681C64.394 80.6481 60.5211 83.0862 57.5436 81.1329L39.3459 69.194H17.3208C10.7497 69.194 5.42285 63.7791 5.42285 57.0994V15.4115C5.42262 8.73178 10.7495 3.31689 17.3206 3.31689Z" fill="url(#paint0_linear_9429_10128)"/>
<path d="M24.249 69.1939H17.3206C10.749 69.1939 5.42285 63.7779 5.42285 57.0996V15.41C5.42285 8.73176 10.749 3.31567 17.3206 3.31567H24.249C17.6774 3.31567 12.3513 8.73176 12.3513 15.41V57.0996C12.3513 63.7779 17.6774 69.1939 24.249 69.1939Z" fill="#1B8354"/>
<path d="M41.571 47.8351C39.1886 47.8351 37.2573 45.8719 37.2573 43.4501V41.59C37.2573 37.2617 39.9385 33.39 43.9294 31.9556C46.9312 30.8767 48.8655 27.8589 48.633 24.6174C48.3785 21.0677 45.551 18.2154 42.0567 17.9828C38.3603 17.7347 35.067 20.4481 34.5582 24.1557C34.5125 24.4901 34.4896 24.8274 34.4897 25.1651C34.4897 27.5869 32.5584 29.5501 30.176 29.5501C27.7936 29.5501 25.8623 27.5869 25.8623 25.1651C25.8623 24.4228 25.9133 23.6752 26.0138 22.9437C27.1441 14.7099 34.4387 8.68554 42.6206 9.23135C50.388 9.74833 56.6722 16.0888 57.2382 23.9796C57.7524 31.1515 53.4626 37.8315 46.8057 40.224C46.2551 40.4219 45.8852 40.9706 45.8852 41.5897V43.4498C45.8847 45.8717 43.9535 47.8351 41.571 47.8351ZM41.571 60.8827C39.1886 60.8827 37.2573 58.9195 37.2573 56.4977V56.4614C37.2573 54.0396 39.1886 52.0764 41.571 52.0764C43.9535 52.0764 45.8847 54.0396 45.8847 56.4614V56.4977C45.8847 58.9195 43.9535 60.8827 41.571 60.8827Z" fill="#F9F7F8"/>
<path d="M29.826 22.9443C29.7251 23.6802 29.6747 24.4223 29.6752 25.1653C29.6752 26.8912 30.6555 28.3849 32.082 29.0991C31.4891 29.3971 30.8364 29.5515 30.175 29.5503C27.794 29.5503 25.8613 27.5878 25.8613 25.1653C25.8613 24.4227 25.9131 23.6759 26.0142 22.9443C27.1434 14.7089 34.4391 8.68547 42.6203 9.23081C42.9133 9.25051 43.2043 9.27909 43.4931 9.31633C36.5658 10.1836 30.8193 15.7118 29.826 22.9443ZM47.7422 31.9551C43.7518 33.3897 41.0693 37.2621 41.0693 41.5901V43.4498C41.0693 45.1756 42.0519 46.6694 43.4782 47.3836C42.8852 47.6814 42.2326 47.8359 41.5712 47.8348C39.1881 47.8348 37.2575 45.8723 37.2575 43.4498V41.5901C37.2575 37.2621 39.938 33.3897 43.9305 31.9551C46.9319 30.8752 48.8648 27.8593 48.632 24.6176C48.4144 21.5688 46.2985 19.0345 43.4909 18.235C44.264 18.014 45.0685 17.9287 45.8698 17.983C49.3646 18.2151 52.1916 21.0669 52.4459 24.6173C52.6784 27.8593 50.7436 30.8752 47.7422 31.9551ZM43.4779 60.4312C42.885 60.7291 42.2324 60.8835 41.571 60.8824C39.1879 60.8824 37.2573 58.9199 37.2573 56.4974V56.4602C37.2573 54.0398 39.1879 52.0752 41.571 52.0752C42.2561 52.0752 42.9025 52.2373 43.4779 52.5263C42.0515 53.2425 41.069 54.7362 41.069 56.4602V56.4974C41.069 58.2232 42.0517 59.717 43.4779 60.4312Z" fill="#DEDBEE"/>
<defs>
<linearGradient id="paint0_linear_9429_10128" x1="5.42285" y1="42.5712" x2="77.7175" y2="42.5712" gradientUnits="userSpaceOnUse">
<stop stop-color="#1B8354"/>
<stop offset="0.0001" stop-color="#1B8354"/>
<stop offset="0.9999" stop-color="#1B8354"/>
</linearGradient>
</defs>
</svg>
