<svg width="40" height="30" viewBox="0 0 40 30" fill="none" xmlns="http://www.w3.org/2000/svg">
<path d="M0.342344 13.7753L12.3417 0.442642C12.5977 0.159991 12.955 0 13.3336 0H21.3332C21.5908 0.000279087 21.8427 0.0749064 22.0589 0.214919C22.2751 0.354931 22.4462 0.554374 22.5518 0.789291C22.7651 1.27193 22.6771 1.83457 22.3252 2.22388L11.1284 14.6659L22.3252 27.1052C22.6771 27.4972 22.7678 28.0598 22.5518 28.5398C22.3358 29.0224 21.8585 29.3317 21.3332 29.3317H13.3336C12.955 29.3317 12.5977 29.1691 12.3417 28.8918L0.342344 15.5592C-0.11363 15.0525 -0.11363 14.2792 0.342344 13.7753Z" fill="#1B8354"/>
<path d="M17.6744 13.7753L29.6737 0.442642C29.9297 0.159991 30.287 0 30.6657 0H38.6652C38.9228 0.000279087 39.1748 0.0749064 39.3909 0.214919C39.6071 0.354931 39.7783 0.554374 39.8838 0.789291C40.0972 1.27193 40.0092 1.83457 39.6572 2.22388L28.4605 14.6659L39.6572 27.1052C40.0092 27.4972 40.0998 28.0598 39.8838 28.5398C39.6679 29.0224 39.1905 29.3317 38.6652 29.3317H30.6657C30.287 29.3317 29.9297 29.1691 29.6737 28.8918L17.6744 15.5592C17.2184 15.0525 17.2184 14.2792 17.6744 13.7753Z" fill="#1B8354"/>
</svg>
