<svg width="22" height="20" viewBox="0 0 22 20" fill="none" xmlns="http://www.w3.org/2000/svg">
<path fill-rule="evenodd" clip-rule="evenodd" d="M11.3336 1.21861C12.9491 0.00537086 15.6234 -0.723376 18.6043 1.10515C20.6656 2.36952 21.8254 5.0106 21.4184 8.04511C21.0095 11.0943 19.0359 14.5429 14.8563 17.6365C13.4049 18.7114 12.3397 19.5003 10.7496 19.5003C9.15955 19.5003 8.09432 18.7114 6.64295 17.6365C2.46334 14.5429 0.489757 11.0943 0.080808 8.04511C-0.326176 5.0106 0.833656 2.36952 2.8949 1.10515C5.87587 -0.723376 8.5501 0.00537074 10.1656 1.21861C10.4314 1.4182 10.6138 1.5548 10.7496 1.64704C10.8854 1.5548 11.0678 1.4182 11.3336 1.21861ZM9.74922 6.75C9.74922 6.19772 10.1969 5.75 10.7492 5.75C11.3015 5.75 11.7492 6.19772 11.7492 6.75L11.7492 8.75H13.7492C14.3015 8.75 14.7492 9.19771 14.7492 9.75C14.7492 10.3023 14.3015 10.75 13.7492 10.75H11.7492V12.75C11.7492 13.3023 11.3015 13.75 10.7492 13.75C10.1969 13.75 9.74922 13.3023 9.74922 12.75V10.75H7.74922C7.19694 10.75 6.74922 10.3023 6.74922 9.75C6.74922 9.19772 7.19694 8.75 7.74922 8.75H9.74922L9.74922 6.75Z" fill="white"/>
</svg>
