<svg width="22" height="20" viewBox="0 0 22 20" fill="none" xmlns="http://www.w3.org/2000/svg">
<path fill-rule="evenodd" clip-rule="evenodd" d="M16.3265 0.170184C14.9199 -1.67638e-05 13.115 -9.31205e-06 10.8022 1.40552e-07C8.48933 -9.31205e-06 6.58014 -1.67638e-05 5.17355 0.170184C3.74222 0.343377 2.60936 0.703594 1.71274 1.51055C0.804814 2.32769 0.389075 3.37747 0.19129 4.70147C-3.37511e-05 5.98221 -1.85498e-05 7.74422 3.7533e-07 9.8125C-1.85498e-05 11.8808 -3.37511e-05 13.5178 0.19129 14.7985C0.389075 16.1225 0.804814 17.1723 1.71274 17.9895C2.60936 18.7964 3.74222 19.1566 5.17355 19.3298C6.58014 19.5 8.48935 19.5 10.8022 19.5C13.115 19.5 14.9199 19.5 16.3265 19.3298C17.7578 19.1566 18.8906 18.7964 19.7873 17.9895C20.6952 17.1723 21.1109 16.1225 21.3087 14.7985C21.5 13.5178 21.5 11.8808 21.5 9.81253C21.5 7.74426 21.5 5.98221 21.3087 4.70147C21.1109 3.37747 20.6952 2.32769 19.7873 1.51055C18.8906 0.703594 17.7578 0.343377 16.3265 0.170184ZM7.25018 4.5C5.7314 4.5 4.50018 5.73122 4.50018 7.25C4.50018 8.76878 5.7314 10 7.25018 10C8.76896 10 10.0002 8.76878 10.0002 7.25C10.0002 5.73122 8.76896 4.5 7.25018 4.5ZM4.42943 14.568C4.87793 13.6099 5.99064 13.0187 7.23143 13.0004C8.4631 12.9822 9.58584 13.5318 10.0709 14.568C10.2465 14.9431 10.693 15.1049 11.0682 14.9293C11.4433 14.7536 11.605 14.3072 11.4294 13.932C10.6267 12.2173 8.85359 11.4763 7.20929 11.5006C5.57412 11.5247 3.83074 12.309 3.07093 13.932C2.89531 14.3072 3.05705 14.7536 3.43219 14.9293C3.80733 15.1049 4.25381 14.9431 4.42943 14.568ZM13 7.75C13 7.33579 13.3358 7 13.75 7H17.75C18.1642 7 18.5 7.33579 18.5 7.75C18.5 8.16421 18.1642 8.5 17.75 8.5H13.75C13.3358 8.5 13 8.16421 13 7.75ZM13.75 11C13.3358 11 13 11.3358 13 11.75C13 12.1642 13.3358 12.5 13.75 12.5H17.75C18.1642 12.5 18.5 12.1642 18.5 11.75C18.5 11.3358 18.1642 11 17.75 11H13.75Z" fill="white"/>
</svg>
