<svg width="16" height="22" viewBox="0 0 16 22" fill="none" xmlns="http://www.w3.org/2000/svg">
<path fill-rule="evenodd" clip-rule="evenodd" d="M9.79162 0.0125839C9.87182 0.0142723 9.93198 0.0862325 9.91984 0.165529C9.82081 0.759694 9.75609 1.13967 9.67421 1.41868C9.59766 1.67952 9.52961 1.76384 9.47652 1.81094C9.4181 1.86277 9.32715 1.91922 9.06288 1.95574C8.77352 1.99574 8.37852 1.99992 7.74946 1.99992C7.1204 1.99992 6.72539 1.99574 6.43604 1.95574C6.17176 1.91922 6.08081 1.86277 6.0224 1.81094C5.96931 1.76384 5.90126 1.67953 5.82471 1.41868C5.74296 1.14014 5.67832 0.760958 5.57957 0.168489C5.56781 0.0873887 5.62948 0.0142187 5.71141 0.0125022C6.30878 -1.31438e-05 6.96808 -6.72757e-06 7.69371 3.34452e-07H7.69376H7.69383H7.80534H7.8054H7.80546C8.53266 -6.74452e-06 9.19323 -1.31736e-05 9.79162 0.0125839ZM3.80962 0.135054C3.94637 0.116668 4.07081 0.213476 4.0906 0.350032L4.09665 0.391732L4.0991 0.407461L4.10612 0.449614C4.19652 0.992191 4.27515 1.46416 4.38584 1.84132C4.50495 2.24714 4.68355 2.6282 5.02733 2.93321C5.3829 3.24868 5.79243 3.38121 6.2311 3.44184C6.64469 3.499 7.15509 3.50015 7.74989 3.50015C8.34469 3.50015 8.85509 3.499 9.26867 3.44184C9.70735 3.38121 10.1169 3.24868 10.4725 2.93321C10.8162 2.6282 10.9948 2.24714 11.1139 1.84132C11.2246 1.46416 11.3033 0.99219 11.3937 0.449615L11.4007 0.407471L11.4099 0.347883C11.4306 0.212359 11.5545 0.116785 11.6904 0.135054C12.7267 0.274376 13.5801 0.569882 14.2552 1.24502C14.9303 1.92016 15.2259 2.77357 15.3652 3.80984C15.5 4.81293 15.5 6.09189 15.5 7.69448V13.806C15.5 15.4086 15.5 16.6875 15.3652 17.6906C15.2259 18.7269 14.9303 19.5803 14.2552 20.2554C13.5801 20.9306 12.7267 21.2261 11.6904 21.3654C10.6873 21.5003 9.40834 21.5002 7.80575 21.5002H7.69426C6.09167 21.5002 4.8127 21.5003 3.80962 21.3654C2.77335 21.2261 1.91994 20.9306 1.2448 20.2554C0.569659 19.5803 0.274154 18.7269 0.134831 17.6906C-2.86102e-05 16.6875 -1.57636e-05 15.4086 3.51131e-07 13.806V13.806V13.806V7.69446V7.69445V7.69444C-1.57636e-05 6.09187 -2.86251e-05 4.81291 0.134831 3.80984C0.274154 2.77357 0.569659 1.92016 1.2448 1.24502C1.91994 0.569882 2.77335 0.274376 3.80962 0.135054ZM6 18.75C6 18.3358 6.33579 18 6.75 18H8.75C9.16421 18 9.5 18.3358 9.5 18.75C9.5 19.1642 9.16421 19.5 8.75 19.5H6.75C6.33579 19.5 6 19.1642 6 18.75Z" fill="white"/>
</svg>
