<svg width="20" height="22" viewBox="0 0 20 22" fill="none" xmlns="http://www.w3.org/2000/svg">
<path d="M9.75009 0C6.85063 0 4.50012 2.3505 4.50012 5.25C4.50012 8.14949 6.85063 10.5 9.75009 10.5C12.6496 10.5 15.0001 8.14949 15.0001 5.25C15.0001 2.3505 12.6496 0 9.75009 0Z" fill="white"/>
<path d="M15.975 13.8271C15.814 13.7362 15.6717 13.6559 15.5563 13.5872C12.0022 11.4709 7.4981 11.4709 3.94405 13.5872C3.82774 13.6564 3.68405 13.7375 3.52139 13.8293C2.80858 14.2314 1.73107 14.8393 0.992897 15.5618C0.531227 16.0137 0.0925766 16.6092 0.0128266 17.3388C-0.0719734 18.1146 0.266487 18.8427 0.945507 19.4896C2.11696 20.6056 3.52274 21.5 5.34105 21.5H14.1593C15.9776 21.5 17.3834 20.6056 18.5548 19.4896C19.2338 18.8427 19.5723 18.1146 19.4875 17.3388C19.4077 16.6092 18.9691 16.0137 18.5074 15.5618C17.7692 14.8393 16.6917 14.2314 15.9789 13.8293L15.975 13.8271Z" fill="white"/>
</svg>
