<svg width="22" height="20" viewBox="0 0 22 20" fill="none" xmlns="http://www.w3.org/2000/svg">
<path d="M7.75 0C5.12665 0 3 2.12665 3 4.75C3 7.37335 5.12665 9.5 7.75 9.5C10.3734 9.5 12.5 7.37335 12.5 4.75C12.5 2.12665 10.3734 0 7.75 0Z" fill="white"/>
<path d="M5.75 11C2.57436 11 0 13.5744 0 16.75C0 18.2688 1.23122 19.5 2.75 19.5H12.75C14.2688 19.5 15.5 18.2688 15.5 16.75C15.5 13.5744 12.9256 11 9.75 11H5.75Z" fill="white"/>
<path d="M12.124 9.2144C12.6313 9.39919 13.1789 9.5 13.75 9.5C16.3734 9.5 18.5 7.37335 18.5 4.75C18.5 2.12665 16.3734 0 13.75 0C13.1789 0 12.6313 0.100808 12.124 0.285604C13.2817 1.42 14 3.00111 14 4.75C14 6.49889 13.2817 8.08 12.124 9.2144Z" fill="white"/>
<path d="M18.7495 19.5H15.99C16.6197 18.7588 16.9995 17.7988 16.9995 16.75C16.9995 14.408 15.8891 12.3254 14.166 11H15.7495C18.9252 11 21.4995 13.5744 21.4995 16.75C21.4995 18.2688 20.2683 19.5 18.7495 19.5Z" fill="white"/>
</svg>
