<svg width="13" height="13" viewBox="0 0 13 13" fill="none" xmlns="http://www.w3.org/2000/svg">
<path d="M6.70833 8.02083C6.70833 7.77921 6.51246 7.58333 6.27083 7.58333C6.02921 7.58333 5.83333 7.77921 5.83333 8.02083V9.77083C5.83333 10.0125 6.02921 10.2083 6.27083 10.2083C6.51246 10.2083 6.70833 10.0125 6.70833 9.77083V8.02083Z" fill="white"/>
<path fill-rule="evenodd" clip-rule="evenodd" d="M6.27084 0C5.76563 0 5.31398 0.161515 4.82639 0.435134C4.35394 0.700253 3.81259 1.09168 3.13184 1.58389L2.25157 2.22036C1.70526 2.61535 1.26892 2.93084 0.939804 3.22284C0.599987 3.52435 0.345764 3.82492 0.184507 4.203C0.022898 4.5819 -0.0161885 4.97026 0.00549081 5.41804C0.0264126 5.85018 0.10654 6.37156 0.206457 7.02171L0.390357 8.21841C0.532324 9.1423 0.645369 9.87796 0.811446 10.4511C0.983175 11.0437 1.22509 11.5142 1.65749 11.8739C2.08809 12.232 2.60103 12.3915 3.22762 12.4676C3.83717 12.5417 4.60609 12.5417 5.57731 12.5417H6.96436C7.93559 12.5417 8.7045 12.5417 9.31405 12.4676C9.94064 12.3915 10.4536 12.232 10.8842 11.8739C11.3166 11.5142 11.5585 11.0437 11.7302 10.4511C11.8963 9.87797 12.0093 9.1423 12.1513 8.21842L12.3352 7.02165C12.4351 6.37153 12.5153 5.85017 12.5362 5.41804C12.5579 4.97026 12.5188 4.5819 12.3572 4.203C12.1959 3.82492 11.9417 3.52435 11.6019 3.22284C11.2728 2.93084 10.8364 2.61536 10.2901 2.22036L9.40984 1.5839C8.72909 1.09168 8.18773 0.700252 7.71528 0.435134C7.22769 0.161515 6.77604 0 6.27084 0ZM3.62275 2.3087C4.33019 1.7972 4.83115 1.43582 5.25459 1.1982C5.66791 0.966262 5.96926 0.875 6.27084 0.875C6.57241 0.875 6.87376 0.966262 7.28708 1.1982C7.71052 1.43582 8.21148 1.7972 8.91892 2.3087L9.75883 2.91599C10.328 3.32749 10.7286 3.61777 11.0211 3.87736C11.3067 4.13075 11.4602 4.33037 11.5523 4.54628C11.644 4.76136 11.6802 5.005 11.6622 5.37573C11.6437 5.75693 11.5711 6.23326 11.4668 6.91223L11.2912 8.05494C11.1434 9.01634 11.0382 9.69551 10.8898 10.2076C10.7452 10.7064 10.5735 10.9941 10.3247 11.2012C10.074 11.4097 9.74828 11.5335 9.20855 11.599C8.65788 11.6659 7.94211 11.6667 6.93514 11.6667H5.60653C4.59956 11.6667 3.88379 11.6659 3.33312 11.599C2.79339 11.5335 2.4677 11.4097 2.21702 11.2012C1.96813 10.9941 1.79643 10.7064 1.65187 10.2076C1.50349 9.69551 1.39825 9.01634 1.25051 8.05494L1.0749 6.91223C0.970564 6.23326 0.897923 5.75693 0.879467 5.37573C0.861518 5.005 0.897622 4.76136 0.989357 4.54628C1.08144 4.33037 1.23493 4.13075 1.52052 3.87736C1.8131 3.61777 2.21371 3.32749 2.78284 2.91599L3.62275 2.3087Z" fill="white"/>
</svg>
