<svg width="24" height="24" viewBox="0 0 24 24" fill="none" xmlns="http://www.w3.org/2000/svg">
<path d="M17.754 4.4978C17.754 4.08359 17.4182 3.7478 17.004 3.7478C16.5898 3.7478 16.254 4.08359 16.254 4.4978V7.00232C16.254 7.41654 16.5898 7.75232 17.004 7.75232C17.4182 7.75232 17.754 7.41654 17.754 7.00232V4.4978Z" fill="white"/>
<path d="M16.9956 8.25593C16.5814 8.25593 16.2456 8.59172 16.2456 9.00593C16.2456 9.42015 16.5814 9.75593 16.9956 9.75593H17.0037C17.4179 9.75593 17.7537 9.42015 17.7537 9.00593C17.7537 8.59172 17.4179 8.25593 17.0037 8.25593H16.9956Z" fill="white"/>
<path fill-rule="evenodd" clip-rule="evenodd" d="M11.2417 6.78541C11.2417 3.69458 13.849 1.24341 16.9956 1.24341C20.1421 1.24341 22.7495 3.69457 22.7495 6.78541C22.7495 9.87624 20.1421 12.3274 16.9956 12.3274C16.5796 12.3274 16.2213 12.2738 16.0394 12.2466C15.9972 12.2403 15.9644 12.2354 15.9427 12.2329C15.8785 12.2256 15.8202 12.2159 15.7738 12.2076C15.752 12.2037 15.7309 12.1997 15.7133 12.1964L15.71 12.1958L15.7075 12.1954C15.6642 12.22 15.6079 12.2517 15.5343 12.2909C14.5855 12.7965 13.8018 12.8574 12.9309 12.6952C12.6708 12.6468 12.4555 12.465 12.3642 12.2168C12.2729 11.9685 12.3191 11.6905 12.4859 11.4852C12.6778 11.2487 12.8118 10.9631 12.8727 10.6537C12.8583 10.6377 12.8403 10.6187 12.8175 10.5955C11.845 9.60686 11.2417 8.26593 11.2417 6.78541ZM16.9956 2.74341C14.6156 2.74341 12.7417 4.58353 12.7417 6.78541C12.7417 7.84782 13.1726 8.81752 13.8868 9.54362C14.0147 9.67362 14.1888 9.86137 14.291 10.1179C14.4042 10.4022 14.3954 10.6759 14.3486 10.9218C14.3311 11.0142 14.3098 11.1057 14.2848 11.1959C14.4544 11.1464 14.6323 11.0719 14.829 10.9671C14.8866 10.9364 14.9301 10.9119 14.9675 10.8906L14.9819 10.8824C15.0125 10.8649 15.0534 10.8415 15.0905 10.8222C15.1424 10.7952 15.2063 10.7654 15.2846 10.7405C15.3605 10.7163 15.4303 10.7028 15.4901 10.6937C15.596 10.6776 15.6894 10.6813 15.7535 10.6867C15.819 10.6923 15.8793 10.7022 15.9224 10.7098C15.9611 10.7166 15.9897 10.722 16.0129 10.7263C16.0543 10.7341 16.0786 10.7387 16.1123 10.7425C16.1853 10.7508 16.2551 10.7611 16.3263 10.7715C16.5113 10.7987 16.7065 10.8274 16.9956 10.8274C19.3755 10.8274 21.2495 8.98727 21.2495 6.78541C21.2495 4.58354 19.3755 2.74341 16.9956 2.74341Z" fill="white"/>
<path fill-rule="evenodd" clip-rule="evenodd" d="M7.50618 8.76636C5.55886 8.76636 3.97745 10.342 3.97745 12.289C3.97745 14.2361 5.55886 15.8117 7.50618 15.8117C9.4535 15.8117 11.0349 14.2361 11.0349 12.289C11.0349 10.342 9.4535 8.76636 7.50618 8.76636ZM5.47745 12.289C5.47745 11.1735 6.3842 10.2664 7.50618 10.2664C8.62817 10.2664 9.53492 11.1735 9.53492 12.289C9.53492 13.4046 8.62817 14.3117 7.50618 14.3117C6.3842 14.3117 5.47745 13.4046 5.47745 12.289Z" fill="white"/>
<path fill-rule="evenodd" clip-rule="evenodd" d="M7.51544 16.7532L7.48107 16.7532C6.53091 16.7533 5.37203 17.0048 4.30667 17.4454C3.24777 17.8834 2.18889 18.5465 1.51764 19.4381C1.17483 19.8934 1.16399 20.4873 1.46307 20.9363C1.76541 21.3901 2.36579 22.039 3.47675 22.5163C3.89519 22.696 4.32825 22.7503 4.71771 22.7503H10.2899C10.6794 22.7503 11.1124 22.696 11.5309 22.5163C12.6418 22.039 13.2422 21.3901 13.5446 20.9363C13.8683 20.4503 13.8033 19.8542 13.49 19.4381C12.2008 17.7258 9.99707 16.7587 7.51544 16.7532ZM4.06887 21.1381C3.37728 20.841 2.99823 20.4769 2.80314 20.2304C3.26278 19.6795 4.01107 19.191 4.88 18.8316C5.79972 18.4511 6.76324 18.2533 7.48124 18.2532L7.48282 18.2532H7.51212C9.56261 18.2577 11.2392 19.0299 12.2053 20.2294C12.0104 20.4759 11.6313 20.8405 10.9388 21.1381C10.7633 21.2135 10.547 21.2503 10.2899 21.2503H4.71771C4.46058 21.2503 4.24431 21.2135 4.06887 21.1381Z" fill="white"/>
</svg>
