<svg width="13" height="13" viewBox="0 0 13 13" fill="none" xmlns="http://www.w3.org/2000/svg">
<path fill-rule="evenodd" clip-rule="evenodd" d="M3.12995 0.605187C2.96639 0.311751 2.70314 0.0896537 2.37257 0.0213311C2.03855 -0.0477047 1.70282 0.0541285 1.42688 0.279028C0.425667 1.09506 -0.21182 2.40247 0.0648529 3.77402C0.23492 4.61709 0.518253 5.44891 1.09524 6.45499C2.2532 8.4741 4.06566 10.2876 6.08711 11.4469C7.09319 12.0239 7.92502 12.3072 8.76809 12.4773C10.1396 12.7539 11.447 12.1164 12.2631 11.1152C12.488 10.8393 12.5898 10.5036 12.5208 10.1695C12.4525 9.83897 12.2304 9.57571 11.9369 9.41215L11.0022 8.89111C10.6579 8.6992 10.3681 8.53768 10.1163 8.43221C9.8491 8.32032 9.58563 8.25387 9.29434 8.28425C9.00304 8.31462 8.75895 8.434 8.52061 8.59861C8.29593 8.75378 8.04575 8.97159 7.74847 9.23041L6.2557 10.53C4.56464 9.49829 3.04276 7.97572 2.01211 6.28641L3.31169 4.79364C3.57052 4.49636 3.78833 4.24618 3.9435 4.02149C4.1081 3.78315 4.22748 3.53906 4.25786 3.24777C4.28824 2.95647 4.22179 2.69301 4.1099 2.42583C4.00443 2.17396 3.84292 1.88423 3.651 1.53995L3.12995 0.605187ZM8.94111 11.6195C8.34286 11.4988 7.75108 11.3159 7.0707 10.9806L8.30491 9.90612C8.62508 9.62738 8.83838 9.44254 9.01784 9.31859C9.1882 9.20095 9.29244 9.16419 9.38509 9.15453C9.47775 9.14486 9.58733 9.15932 9.77829 9.23929C9.97946 9.32354 10.2263 9.4604 10.5971 9.66708L11.5109 10.1764C11.6222 10.2385 11.6556 10.3067 11.6639 10.3466C11.6714 10.3831 11.6709 10.4568 11.5848 10.5624C10.9293 11.3667 9.93047 11.8191 8.94111 11.6195ZM2.63599 4.2372L1.5615 5.47141C1.22624 4.79103 1.04326 4.19925 0.922576 3.60099C0.722998 2.61163 1.1754 1.61281 1.97968 0.957284C2.08529 0.871214 2.15901 0.870685 2.19546 0.87822C2.23537 0.886469 2.30361 0.919876 2.36567 1.0312L2.87502 1.945C3.0817 2.31579 3.21857 2.56264 3.30281 2.76382C3.38278 2.95478 3.39724 3.06436 3.38758 3.15701C3.37792 3.24967 3.34116 3.35391 3.22351 3.52426C3.09957 3.70373 2.91472 3.91703 2.63599 4.2372Z" fill="white"/>
<path d="M7.94057 0.0172838C7.70842 -0.0497101 7.46592 0.0841765 7.39892 0.316328C7.33193 0.548479 7.46582 0.790984 7.69797 0.857978C9.6169 1.41174 11.1302 2.92502 11.6841 4.8439C11.7511 5.07605 11.9936 5.20993 12.2257 5.14292C12.4579 5.07592 12.5918 4.83341 12.5248 4.60126C11.8876 2.39352 10.1484 0.654407 7.94057 0.0172838Z" fill="white"/>
<path d="M7.60876 2.85352C7.38636 2.75907 7.1295 2.8628 7.03506 3.08521C6.94062 3.30761 7.04435 3.56446 7.26675 3.65891C7.99265 3.96716 8.57491 4.54941 8.88317 5.27531C8.97762 5.49771 9.23447 5.60144 9.45687 5.50699C9.67928 5.41255 9.783 5.15569 9.68856 4.93329C9.29169 3.99875 8.54331 3.25038 7.60876 2.85352Z" fill="white"/>
</svg>
