<svg width="12" height="13" viewBox="0 0 12 13" fill="none" xmlns="http://www.w3.org/2000/svg">
<path d="M3.9375 5.67867C3.69588 5.67867 3.5 5.87455 3.5 6.11617C3.5 6.35779 3.69588 6.55367 3.9375 6.55367H7.4375C7.67912 6.55367 7.875 6.35779 7.875 6.11617C7.875 5.87455 7.67912 5.67867 7.4375 5.67867H3.9375Z" fill="white"/>
<path d="M4.8125 7.96501C4.57088 7.96501 4.375 8.16088 4.375 8.40251C4.375 8.64413 4.57088 8.84001 4.8125 8.84001H6.5625C6.80412 8.84001 7 8.64413 7 8.40251C7 8.16088 6.80412 7.96501 6.5625 7.96501H4.8125Z" fill="white"/>
<path fill-rule="evenodd" clip-rule="evenodd" d="M5.72602 3.35462e-07H5.68866C5.39391 -7.79067e-06 5.14388 -1.46835e-05 4.9364 0.018874C4.71622 0.0389184 4.51113 0.0823314 4.3128 0.187785C4.23454 0.229403 4.15985 0.277438 4.08951 0.331397C3.9113 0.468115 3.78673 0.636728 3.67717 0.82876C3.57392 1.00972 3.47023 1.23722 3.34798 1.50543L3.10355 2.04167H0.4375C0.195875 2.04167 0 2.23754 0 2.47917C0 2.72079 0.195875 2.91667 0.4375 2.91667H0.900615L1.22985 8.37029C1.27385 9.09926 1.30877 9.67771 1.38141 10.1398C1.45591 10.6136 1.57569 11.0083 1.81596 11.3536C2.03577 11.6694 2.31895 11.936 2.64747 12.1364C3.00658 12.3554 3.40774 12.4512 3.88522 12.497C4.35082 12.5417 4.93031 12.5417 5.66057 12.5417H5.70588C6.43518 12.5417 7.01397 12.5417 7.47902 12.4971C7.95595 12.4514 8.35668 12.3558 8.71553 12.1371C9.04383 11.9371 9.32693 11.671 9.54681 11.3557C9.78715 11.011 9.9073 10.6169 9.98237 10.1437C10.0556 9.68228 10.0913 9.10463 10.1363 8.37669L10.4738 2.91667H10.9375C11.1791 2.91667 11.375 2.72079 11.375 2.47917C11.375 2.23754 11.1791 2.04167 10.9375 2.04167H8.32734L8.04063 1.45021C7.91525 1.19154 7.80879 0.971928 7.70401 0.797348C7.59277 0.612018 7.4677 0.449601 7.29162 0.318271C7.22204 0.266374 7.14835 0.220208 7.0713 0.18023C6.87631 0.0790696 6.67561 0.0373809 6.46032 0.018125C6.25751 -1.42381e-05 6.01348 -7.54725e-06 5.72602 3.35462e-07ZM7.35495 2.04167H4.06516L4.13634 1.88553C4.26852 1.59555 4.35599 1.40466 4.43717 1.26237C4.51423 1.12731 4.56952 1.06598 4.62211 1.02563C4.65408 1.00111 4.68803 0.979275 4.7236 0.960357C4.78212 0.929241 4.86087 0.904369 5.01573 0.89027C5.17886 0.875419 5.38884 0.875001 5.70753 0.875001C6.01845 0.875001 6.22314 0.875404 6.38237 0.889646C6.53345 0.903159 6.61068 0.927008 6.66834 0.956923C6.70337 0.975094 6.73686 0.996078 6.76849 1.01967C6.82056 1.05851 6.87571 1.1176 6.95377 1.24766C7.03605 1.38473 7.1257 1.56874 7.26132 1.84852L7.35495 2.04167ZM2.10189 8.29498L1.77721 2.91667H9.59712L9.26433 8.30014C9.21762 9.05569 9.18403 9.59147 9.11817 10.0066C9.05343 10.4148 8.96324 10.6628 8.82907 10.8552C8.67862 11.0709 8.48493 11.253 8.26029 11.3899C8.05996 11.5119 7.80686 11.5866 7.39551 11.6261C6.97708 11.6662 6.44026 11.6667 5.68327 11.6667C4.92528 11.6667 4.38774 11.6662 3.96878 11.626C3.55691 11.5865 3.30355 11.5116 3.10309 11.3894C2.87832 11.2523 2.68456 11.0699 2.53417 10.8538C2.40005 10.661 2.31006 10.4126 2.24579 10.0039C2.18043 9.58813 2.14757 9.05158 2.10189 8.29498Z" fill="white"/>
</svg>
