<svg width="13" height="13" viewBox="0 0 13 13" fill="none" xmlns="http://www.w3.org/2000/svg">
<path fill-rule="evenodd" clip-rule="evenodd" d="M3.20833 3.0625C3.20833 1.37113 4.57946 0 6.27083 0C7.9622 0 9.33333 1.37113 9.33333 3.0625C9.33333 4.75387 7.9622 6.125 6.27083 6.125C4.57946 6.125 3.20833 4.75387 3.20833 3.0625ZM6.27083 0.875C5.06271 0.875 4.08333 1.85438 4.08333 3.0625C4.08333 4.27062 5.06271 5.25 6.27083 5.25C7.47896 5.25 8.45833 4.27062 8.45833 3.0625C8.45833 1.85438 7.47896 0.875 6.27083 0.875Z" fill="white"/>
<path d="M7.31492 8.10716C5.79854 7.66415 4.1291 7.8555 2.74835 8.67765C2.65046 8.73594 2.54319 8.7968 2.43084 8.86054C2.01515 9.09637 1.52964 9.37181 1.19125 9.70303C0.981176 9.90865 0.891628 10.0783 0.877302 10.2093C0.865929 10.3134 0.892233 10.485 1.1551 10.7354C1.75935 11.3111 2.37335 11.6667 3.11561 11.6667H5.39594C5.63756 11.6667 5.83344 11.8625 5.83344 12.1042C5.83344 12.3458 5.63756 12.5417 5.39594 12.5417H3.11561C2.05493 12.5417 1.23489 12.0199 0.551544 11.3689C0.15545 10.9915 -0.0419873 10.5668 0.00748318 10.1143C0.0540015 9.68869 0.309883 9.34133 0.579189 9.07773C1.00979 8.65625 1.63833 8.30164 2.05414 8.06705C2.14901 8.01353 2.23285 7.96623 2.30069 7.92584C3.8955 6.97622 5.81667 6.75788 7.56029 7.26727C7.79222 7.33502 7.92531 7.57797 7.85755 7.8099C7.78979 8.04183 7.54685 8.17492 7.31492 8.10716Z" fill="white"/>
<path fill-rule="evenodd" clip-rule="evenodd" d="M11.4477 6.57465C11.0565 6.35747 10.5817 6.36468 10.1972 6.59336C10.0367 6.68878 9.89695 6.84061 9.73814 7.01311L7.22212 9.7391C6.94581 10.0381 6.73872 10.2622 6.61656 10.5434C6.49471 10.8238 6.47107 11.1296 6.43939 11.5395L6.42621 11.7089C6.42072 11.7785 6.41364 11.8684 6.41804 11.9474C6.42342 12.0439 6.44797 12.1914 6.56355 12.3225C6.68043 12.4552 6.82537 12.4976 6.92329 12.5139C7.00165 12.527 7.09174 12.5293 7.15967 12.531L7.32326 12.5353C7.79002 12.5479 8.14524 12.5574 8.47489 12.4287C8.80363 12.3003 9.06067 12.0523 9.40016 11.7248L11.9611 9.25825C12.1305 9.09544 12.2787 8.95306 12.3714 8.79035C12.5917 8.40375 12.5985 7.92899 12.3895 7.53617C12.3016 7.37086 12.1576 7.22418 11.9929 7.05632L11.9561 7.01872L11.9187 6.98054C11.7551 6.81292 11.6109 6.66526 11.4477 6.57465ZM10.6444 7.34541C10.7615 7.2758 10.9042 7.27374 11.023 7.33966C11.0588 7.35954 11.1069 7.40213 11.3308 7.63081C11.554 7.85888 11.5966 7.9088 11.617 7.94715C11.6852 8.07523 11.6829 8.23135 11.6112 8.3571C11.5898 8.39469 11.5459 8.44322 11.3161 8.66452L8.84764 11.0421C8.42835 11.4459 8.30182 11.5569 8.15655 11.6136C8.01535 11.6688 7.85453 11.6735 7.30772 11.6595C7.34612 11.1677 7.36343 11.0201 7.41909 10.892C7.47485 10.7637 7.5703 10.652 7.90782 10.2863L10.3449 7.64583C10.5621 7.41056 10.6091 7.36643 10.6444 7.34541Z" fill="white"/>
</svg>
