<svg width="13" height="13" viewBox="0 0 13 13" fill="none" xmlns="http://www.w3.org/2000/svg">
<path fill-rule="evenodd" clip-rule="evenodd" d="M7.63456 4.99968L7.62366 4.99922L7.59046 4.99786C7.56119 4.99668 7.51791 4.99499 7.46235 4.99296C7.3512 4.9889 7.19096 4.98347 6.99528 4.97804C6.60366 4.96717 6.07129 4.95633 5.50706 4.95633C4.73072 4.95633 4.24235 4.9687 3.71539 4.98205C3.47267 4.9882 3.22172 4.99456 2.93072 5.00001L2.92116 5.00019L2.9116 4.99995C2.3859 4.98682 1.53339 5.10451 1.12769 6.04377C0.983703 6.49335 0.898931 7.22387 0.87938 8.0016C0.85974 8.78286 0.907096 9.5552 1.00147 10.0535L1.00588 10.0768L1.00775 10.1005C1.04261 10.5416 1.27042 11.1462 1.99269 11.472L2.00471 11.4775L2.01638 11.4836C2.20021 11.5803 2.47498 11.6235 2.84457 11.6379C2.98697 11.6434 3.13046 11.6445 3.27975 11.6457L3.39817 11.6467C3.58539 11.6485 3.78173 11.6522 3.96792 11.6684C4.20864 11.6893 4.38683 11.9014 4.36591 12.1421C4.345 12.3828 4.13291 12.561 3.89219 12.5401C3.74253 12.5271 3.57566 12.5235 3.38962 12.5216L3.2797 12.5207C3.12902 12.5196 2.96796 12.5183 2.81065 12.5122C2.43242 12.4975 1.99 12.4541 1.62137 12.2644C0.555037 11.7779 0.196708 10.8572 0.137513 10.1937C0.0304797 9.6135 -0.0155931 8.78511 0.00465604 7.97961C0.0250101 7.16994 0.113539 6.32644 0.302029 5.75334L0.307613 5.73636L0.314565 5.7199C0.778308 4.62127 1.65743 4.26486 2.3383 4.16183C2.32998 4.12962 2.32523 4.09595 2.3245 4.06125L2.32205 3.94932C2.30794 3.31495 2.29322 2.65331 2.49197 2.04376C2.71445 1.36144 3.18552 0.782244 4.06585 0.286557L4.09028 0.272799L4.11627 0.262273C4.72559 0.0155005 5.66302 -0.205701 6.80295 0.330197L6.82368 0.339946L6.84329 0.351807C7.41633 0.698513 7.75619 1.06696 7.96616 1.38878C8.07022 1.54826 8.13853 1.69041 8.1864 1.80217C8.20581 1.84749 8.22243 1.88926 8.23483 1.92046L8.24157 1.93737C8.25129 1.96167 8.2562 1.97313 8.25802 1.97738L8.25887 1.97943L8.27167 2.00333L8.2818 2.03011C8.43481 2.43474 8.46334 2.8976 8.46522 3.27123C8.46606 3.43916 8.46132 3.60013 8.45727 3.73712L8.45569 3.79129C8.45118 3.94865 8.44963 4.05335 8.45481 4.12056C8.45689 4.14758 8.45647 4.17422 8.45374 4.20024C9.40082 4.41114 9.93126 5.01901 10.1637 5.49328C10.27 5.71025 10.1803 5.97234 9.96336 6.07867C9.74639 6.185 9.4843 6.09531 9.37797 5.87834C9.21231 5.5403 8.73778 4.97531 7.66359 4.99997L7.64907 5.00031L7.63456 4.99968ZM4.47061 1.06292C3.76242 1.46726 3.46482 1.88272 3.32387 2.31501C3.17254 2.77912 3.18363 3.30258 3.19835 3.99776L3.1993 4.04282C3.19985 4.0689 3.19811 4.09449 3.19426 4.11941C3.36495 4.11561 3.52512 4.11156 3.68285 4.10756C4.21505 4.0941 4.71958 4.08133 5.50706 4.08133C6.08179 4.08133 6.62266 4.09236 7.01955 4.10338C7.21812 4.10889 7.38094 4.1144 7.49431 4.11854L7.57864 4.12171C7.57433 4.01234 7.57761 3.88607 7.58105 3.7662L7.58267 3.71066C7.58673 3.57264 7.59099 3.42739 7.59023 3.27564C7.5885 2.93233 7.56005 2.60799 7.47037 2.3586C7.45345 2.32312 7.43938 2.28793 7.42992 2.26426L7.42075 2.24126C7.40843 2.21032 7.39659 2.18059 7.38206 2.14665C7.34803 2.06719 7.30241 1.97274 7.23335 1.86691C7.09905 1.66107 6.86095 1.38889 6.41005 1.11245C5.58918 0.734004 4.93642 0.878421 4.47061 1.06292Z" fill="white"/>
<path fill-rule="evenodd" clip-rule="evenodd" d="M5.25 10.7831C5.25 9.81188 6.04451 9.03682 7.00307 9.03682C7.33027 9.03682 7.63713 9.12694 7.89958 9.28402L9.00991 8.20036L9.84246 7.39926L9.85253 7.39068C9.85932 7.38489 9.8677 7.37751 9.87755 7.36883C9.96327 7.29329 10.1608 7.11917 10.4046 7.03501C10.5541 6.98339 10.7331 6.95898 10.928 7.0027C11.1216 7.04613 11.2983 7.14942 11.4566 7.30065L12.4049 8.19782C12.5804 8.36388 12.5881 8.64078 12.422 8.8163C12.256 8.99182 11.9791 8.99949 11.8035 8.83343L10.8527 7.93379C10.7858 7.86978 10.7463 7.85868 10.7365 7.85649C10.7276 7.8545 10.7154 7.85339 10.6902 7.86211C10.6606 7.87231 10.6217 7.8934 10.572 7.93021C10.5328 7.95925 10.5014 7.98641 10.4635 8.01926L10.4303 8.04788L9.9446 8.51528L10.5551 9.1015C10.7294 9.26884 10.7351 9.54579 10.5677 9.72009C10.4004 9.89438 10.1234 9.90001 9.94913 9.73266L9.31576 9.12453L8.51455 9.90649C8.66417 10.1637 8.75 10.463 8.75 10.7831C8.75 11.7551 7.96091 12.5217 7.00307 12.5217C6.04791 12.5217 5.25 11.7578 5.25 10.7831ZM7.00307 9.91182C6.5198 9.91182 6.125 10.303 6.125 10.7831C6.125 11.2599 6.5164 11.6467 7.00307 11.6467C7.48706 11.6467 7.875 11.2625 7.875 10.7831C7.875 10.3004 7.48367 9.91182 7.00307 9.91182Z" fill="white"/>
</svg>
