<svg width="10" height="13" viewBox="0 0 10 13" fill="none" xmlns="http://www.w3.org/2000/svg">
<path d="M3.5 10.3542C3.5 10.1125 3.69588 9.91667 3.9375 9.91667H5.10417C5.34579 9.91667 5.54167 10.1125 5.54167 10.3542C5.54167 10.5958 5.34579 10.7917 5.10417 10.7917H3.9375C3.69588 10.7917 3.5 10.5958 3.5 10.3542Z" fill="white"/>
<path fill-rule="evenodd" clip-rule="evenodd" d="M4.48831 2.34623e-07H4.55335C5.4882 -1.00576e-05 6.23426 -1.82713e-05 6.81939 0.0786508C7.42388 0.159922 7.9217 0.3323 8.31554 0.726132C8.70937 1.11996 8.88175 1.61779 8.96302 2.22228C9.04169 2.80741 9.04168 3.55347 9.04167 4.48832V8.05335C9.04168 8.9882 9.04169 9.73426 8.96302 10.3194C8.88175 10.9239 8.70937 11.4217 8.31554 11.8155C7.9217 12.2094 7.42388 12.3817 6.81939 12.463C6.23426 12.5417 5.4882 12.5417 4.55335 12.5417H4.48832C3.55347 12.5417 2.80741 12.5417 2.22227 12.463C1.61779 12.3817 1.11996 12.2094 0.726132 11.8155C0.3323 11.4217 0.159922 10.9239 0.0786508 10.3194C-1.82713e-05 9.73426 -1.00576e-05 8.9882 2.34623e-07 8.05336V4.48832C-1.00576e-05 3.55347 -1.82713e-05 2.80741 0.0786508 2.22228C0.159922 1.61779 0.3323 1.11996 0.726132 0.726132C1.11996 0.3323 1.61779 0.159922 2.22227 0.0786508C2.80741 -1.82713e-05 3.55347 -1.00576e-05 4.48831 2.34623e-07ZM2.33887 0.945848C1.83141 1.01407 1.54901 1.14069 1.34485 1.34485C1.14069 1.54901 1.01407 1.83141 0.945848 2.33887C0.87593 2.85891 0.875001 3.54602 0.875001 4.52083V8.02083C0.875001 8.99565 0.87593 9.68276 0.945848 10.2028C1.01407 10.7103 1.14069 10.9927 1.34485 11.1968C1.54901 11.401 1.83141 11.5276 2.33887 11.5958C2.85891 11.6657 3.54602 11.6667 4.52083 11.6667C5.49565 11.6667 6.18276 11.6657 6.7028 11.5958C7.21026 11.5276 7.49266 11.401 7.69682 11.1968C7.90098 10.9927 8.02759 10.7103 8.09582 10.2028C8.16574 9.68276 8.16667 8.99565 8.16667 8.02083V4.52083C8.16667 3.54602 8.16574 2.85891 8.09582 2.33887C8.02759 1.83141 7.90098 1.54901 7.69682 1.34485C7.49266 1.14069 7.21026 1.01407 6.7028 0.945848C6.67927 0.942684 6.65539 0.939662 6.63117 0.936774C6.58455 1.21511 6.54151 1.45876 6.48322 1.65735C6.41375 1.89409 6.30956 2.11637 6.10902 2.29429C5.9016 2.47832 5.66271 2.55563 5.40682 2.59099C5.16556 2.62434 4.86783 2.625 4.52086 2.625C4.1739 2.625 3.87616 2.62434 3.6349 2.59099C3.37901 2.55563 3.14012 2.47832 2.9327 2.29429C2.73217 2.11637 2.62798 1.89409 2.5585 1.65736C2.50022 1.45876 2.45717 1.2151 2.41056 0.936768C2.38631 0.939657 2.36242 0.942682 2.33887 0.945848ZM3.28902 0.883485C3.32897 1.11756 3.36041 1.28257 3.39809 1.41095C3.44275 1.56311 3.48244 1.61229 3.51341 1.63977C3.54748 1.67 3.60054 1.70293 3.7547 1.72423C3.92349 1.74756 4.15391 1.75 4.52086 1.75C4.88781 1.75 5.11823 1.74756 5.28703 1.72423C5.44119 1.70293 5.49424 1.67 5.52831 1.63977C5.55928 1.61229 5.59898 1.56311 5.64363 1.41095C5.68131 1.28257 5.71275 1.11756 5.75271 0.883486C5.40087 0.87522 4.99487 0.875001 4.52083 0.875001C4.04682 0.875001 3.64084 0.87522 3.28902 0.883485Z" fill="white"/>
</svg>
