<svg width="12" height="13" viewBox="0 0 12 13" fill="none" xmlns="http://www.w3.org/2000/svg">
<path d="M3.9375 12.5417C2.79358 12.5417 2.21958 12.5417 1.71033 12.3305C1.02667 12.0476 0.494083 11.515 0.211166 10.8313C0 10.3221 0 9.74808 0 8.60417V5.10417C0 2.78659 0 1.62283 0.811415 0.811996C1.62283 0 2.78599 0 5.10413 0C7.42227 0 8.5855 0 9.39691 0.811996C10.2083 1.62283 10.2083 2.78658 10.2083 5.10417V5.39583C10.2083 5.63733 10.0123 5.83333 9.77083 5.83333C9.52933 5.83333 9.33333 5.63733 9.33333 5.39583V5.10417C9.33333 3.02808 9.33333 1.98565 8.778 1.4309C8.22268 0.875 7.18088 0.875 5.10431 0.875C3.02764 0.875 1.98567 0.875001 1.43033 1.43033C0.875001 1.98567 0.875 3.0275 0.875 5.10417V8.60417C0.875 9.63198 0.875 10.1483 1.01908 10.4965C1.21275 10.9637 1.57733 11.3283 2.04517 11.522C2.39341 11.6667 2.90966 11.6667 3.93748 11.6667C4.17898 11.6667 4.375 11.8627 4.375 12.1042C4.375 12.3457 4.179 12.5417 3.9375 12.5417Z" fill="white"/>
<path d="M5.10417 6.125H2.77083C2.52933 6.125 2.33333 5.929 2.33333 5.6875C2.33333 5.446 2.52933 5.25 2.77083 5.25H5.10417C5.34567 5.25 5.54167 5.446 5.54167 5.6875C5.54167 5.929 5.34567 6.125 5.10417 6.125Z" fill="white"/>
<path d="M7.4375 3.79167H2.77083C2.52933 3.79167 2.33333 3.59567 2.33333 3.35417C2.33333 3.11267 2.52933 2.91667 2.77083 2.91667H7.4375C7.679 2.91667 7.875 3.11267 7.875 3.35417C7.875 3.59567 7.679 3.79167 7.4375 3.79167Z" fill="white"/>
<path fill-rule="evenodd" clip-rule="evenodd" d="M5.25 12.1041C5.25 12.3456 5.446 12.5416 5.6875 12.5416H10.9375C11.179 12.5416 11.375 12.3462 11.375 12.1047V11.3779C11.375 10.9223 11.0991 10.5297 10.689 10.4002L9.4885 10.0187C9.527 9.62322 9.59467 9.24114 9.76442 8.82289C9.95692 8.34922 9.96567 7.59323 9.61042 7.06531C9.415 6.7754 9.03525 6.42948 8.3125 6.42948C7.58975 6.42948 7.203 6.77889 7.00583 7.07172C6.64883 7.60197 6.65583 8.35447 6.84658 8.82289C7.02333 9.25747 7.09625 9.65179 7.13533 10.0193L5.93658 10.3996C5.52592 10.5291 5.25 10.9223 5.25 11.3773V12.1041ZM10.5 11.3773V11.6666H6.125V11.3773C6.125 11.3032 6.16409 11.2455 6.20084 11.2338L7.51683 10.8161C7.567 10.7998 7.6195 10.7916 7.672 10.7916H8.953C9.0055 10.7916 9.058 10.7998 9.10875 10.8161L10.4247 11.2338C10.4609 11.2455 10.5 11.3032 10.5 11.3773ZM8.61933 9.91664H8.0045C7.959 9.49372 7.87092 9.01888 7.65742 8.49271C7.56992 8.27805 7.54717 7.83413 7.73209 7.55938C7.84817 7.3873 8.04125 7.30389 8.31308 7.30389C8.58492 7.30389 8.77159 7.38557 8.88475 7.55357C9.0685 7.82599 9.04283 8.27456 8.95417 8.49331C8.7465 9.00373 8.66425 9.46456 8.61933 9.91664Z" fill="white"/>
</svg>
