<svg width="13" height="12" viewBox="0 0 13 12" fill="none" xmlns="http://www.w3.org/2000/svg">
<path fill-rule="evenodd" clip-rule="evenodd" d="M2.04167 2.77083C2.04167 1.24054 3.28221 0 4.8125 0C6.34279 0 7.58333 1.24054 7.58333 2.77083C7.58333 4.30112 6.34279 5.54167 4.8125 5.54167C3.28221 5.54167 2.04167 4.30112 2.04167 2.77083ZM4.8125 0.875C3.76546 0.875 2.91667 1.72379 2.91667 2.77083C2.91667 3.81787 3.76546 4.66667 4.8125 4.66667C5.85954 4.66667 6.70833 3.81787 6.70833 2.77083C6.70833 1.72379 5.85954 0.875 4.8125 0.875Z" fill="white"/>
<path fill-rule="evenodd" clip-rule="evenodd" d="M2.00819 7.23607C3.81391 6.14353 6.10295 6.14353 7.90867 7.23607C7.96525 7.27031 8.03587 7.31077 8.11632 7.35687C8.4737 7.56164 9.02516 7.87761 9.40234 8.25275C9.63862 8.48776 9.86831 8.8024 9.91013 9.19115C9.95474 9.60583 9.77582 9.99228 9.42558 10.3313C8.83244 10.9055 8.11123 11.375 7.1732 11.375H2.74366C1.80563 11.375 1.08442 10.9055 0.491275 10.3313C0.14104 9.99228 -0.037879 9.60583 0.00672959 9.19115C0.0485484 8.8024 0.278233 8.48776 0.514522 8.25275C0.891694 7.87761 1.44314 7.56164 1.80052 7.35687C1.88089 7.31083 1.95166 7.27028 2.00819 7.23607ZM7.45571 7.98471C5.92846 7.06065 3.98839 7.06065 2.46114 7.98471C2.37447 8.03715 2.28037 8.09142 2.18241 8.14791C1.8252 8.35391 1.41685 8.58939 1.13156 8.87314C0.955054 9.0487 0.887285 9.18643 0.87671 9.28473C0.868925 9.3571 0.882673 9.49239 1.09988 9.70266C1.61549 10.2018 2.12916 10.5 2.74366 10.5H7.1732C7.7877 10.5 8.30137 10.2018 8.81698 9.70266C9.03418 9.49239 9.04793 9.3571 9.04015 9.28473C9.02957 9.18643 8.9618 9.0487 8.78529 8.87314C8.50001 8.58939 8.09166 8.35391 7.73444 8.14791C7.63657 8.09146 7.54233 8.03711 7.45571 7.98471Z" fill="white"/>
<path d="M9.1875 1.16667C8.94588 1.16667 8.75 1.36254 8.75 1.60417C8.75 1.84579 8.94588 2.04167 9.1875 2.04167L12.1042 2.04167C12.3458 2.04167 12.5417 1.84579 12.5417 1.60417C12.5417 1.36254 12.3458 1.16667 12.1042 1.16667L9.1875 1.16667Z" fill="white"/>
<path d="M8.75 3.35417C8.75 3.11254 8.94588 2.91667 9.1875 2.91667L12.1042 2.91667C12.3458 2.91667 12.5417 3.11254 12.5417 3.35417C12.5417 3.59579 12.3458 3.79167 12.1042 3.79167L9.1875 3.79167C8.94588 3.79167 8.75 3.59579 8.75 3.35417Z" fill="white"/>
<path d="M10.9375 4.66667C10.6959 4.66667 10.5 4.86254 10.5 5.10417C10.5 5.34579 10.6959 5.54167 10.9375 5.54167H12.1042C12.3458 5.54167 12.5417 5.34579 12.5417 5.10417C12.5417 4.86254 12.3458 4.66667 12.1042 4.66667H10.9375Z" fill="white"/>
</svg>
