<svg width="13" height="13" viewBox="0 0 13 13" fill="none" xmlns="http://www.w3.org/2000/svg">
<path fill-rule="evenodd" clip-rule="evenodd" d="M7.4375 0.875C8.80671 0.875 9.91667 1.98496 9.91667 3.35417C9.91667 3.40683 9.91503 3.45908 9.91181 3.51085C9.54007 3.49604 9.11613 3.49605 8.63619 3.49605L4.96231 3.49606C4.95967 3.44913 4.95833 3.40182 4.95833 3.35417C4.95833 2.80007 5.14011 2.28843 5.44729 1.87563C5.45196 1.86973 5.45649 1.8637 5.46086 1.85756C5.91356 1.26058 6.6305 0.875 7.4375 0.875ZM4.89473 1.16667C5.50984 0.452307 6.42085 0 7.4375 0C9.28996 0 10.7917 1.50171 10.7917 3.35417C10.7917 3.4354 10.7888 3.51602 10.7831 3.59591C11.2211 3.67732 11.5955 3.83142 11.901 4.13708C12.2521 4.48833 12.4031 4.93057 12.4737 5.45583C12.5417 5.96177 12.5417 6.60508 12.5417 7.40326V8.63446C12.5417 9.43264 12.5417 10.0759 12.4737 10.5819C12.4031 11.1072 12.2521 11.5494 11.901 11.9006C11.5499 12.2519 11.1078 12.403 10.5827 12.4737C10.077 12.5417 9.43394 12.5417 8.6362 12.5417H5.07124H5.07121C3.99921 12.5417 3.15009 12.5417 2.48554 12.4523C1.80159 12.3603 1.24802 12.1665 0.811484 11.7297C0.374977 11.293 0.181267 10.7392 0.0893253 10.0551C-1.60548e-05 9.39022 -8.87915e-06 8.54072 1.81927e-07 7.46815V7.46814V6.23512V6.23511C-8.87915e-06 5.16255 -1.60548e-05 4.31304 0.0893253 3.64821C0.181267 2.96403 0.374977 2.41028 0.811484 1.97356C1.50579 1.27892 2.51513 1.18721 3.93117 1.16671L3.9375 1.16667H4.89473ZM4.34985 2.04167H3.94068C2.46614 2.06317 1.83602 2.18626 1.43035 2.59213C1.18344 2.83916 1.03544 3.17752 0.95653 3.76475C0.875929 4.36454 0.875001 5.15518 0.875001 6.26802V7.43525C0.875001 8.54808 0.875929 9.33872 0.95653 9.93852C1.03544 10.5257 1.18344 10.8641 1.43035 11.1111C1.67723 11.3581 2.01534 11.5062 2.60219 11.5851C3.20164 11.6657 3.99185 11.6667 5.10417 11.6667H8.60417C9.4415 11.6667 10.0255 11.6657 10.4661 11.6065C10.8941 11.5489 11.1207 11.4436 11.2822 11.2821C11.4437 11.1205 11.5489 10.8937 11.6065 10.4654C11.6657 10.0245 11.6667 9.4402 11.6667 8.60248V7.43525C11.6667 6.59753 11.6657 6.01323 11.6065 5.57236C11.5489 5.14406 11.4437 4.91721 11.2822 4.75565C11.1207 4.59412 10.8941 4.48882 10.4661 4.43125C10.0255 4.37199 9.4415 4.37106 8.60417 4.37106H3.35417C3.11254 4.37106 2.91667 4.17518 2.91667 3.93356C2.91667 3.69193 3.11254 3.49606 3.35417 3.49606H4.08629C4.08432 3.44899 4.08333 3.40168 4.08333 3.35417C4.08333 2.88839 4.17827 2.4448 4.34985 2.04167ZM9.47917 7C9.72079 7 9.91667 7.19588 9.91667 7.4375C9.91667 7.67912 9.72079 7.875 9.47917 7.875C9.23754 7.875 9.04167 7.67912 9.04167 7.4375C9.04167 7.19588 9.23754 7 9.47917 7ZM10.7917 7.4375C10.7917 6.71263 10.204 6.125 9.47917 6.125C8.75429 6.125 8.16667 6.71263 8.16667 7.4375C8.16667 8.16237 8.75429 8.75 9.47917 8.75C10.204 8.75 10.7917 8.16237 10.7917 7.4375Z" fill="white"/>
</svg>
